<?xml version="1.0" encoding="utf-8"?>
<!-- Generator: Adobe Illustrator 18.1.1, SVG Export Plug-In . SVG Version: 6.00 Build 0)  -->
<!DOCTYPE svg PUBLIC "-//W3C//DTD SVG 1.1//EN" "http://www.w3.org/Graphics/SVG/1.1/DTD/svg11.dtd">
<svg version="1.1" id="Layer_1" xmlns="http://www.w3.org/2000/svg" xmlns:xlink="http://www.w3.org/1999/xlink" x="0px" y="0px"
	 viewBox="0 0 253.8 289.2" enable-background="new 0 0 253.8 289.2" xml:space="preserve">
<g id="home-about-votegraph-graphic.svg_1_">
	<path fill="#4A7EDB" d="M80.4,262.8c-3.3-1.3-6.5-2.7-9.7-4.3l0.9-1.8c3.1,1.5,6.3,2.9,9.5,4.2L80.4,262.8z M61.5,253.4
		c-3-1.8-6-3.8-8.8-5.8l1.2-1.6c2.8,2,5.7,4,8.7,5.7L61.5,253.4z M44.4,241.1c-2.7-2.3-5.3-4.7-7.7-7.2l1.4-1.4
		c2.4,2.5,5,4.8,7.6,7.1L44.4,241.1z M29.5,226c-2.3-2.7-4.4-5.5-6.4-8.4l1.6-1.2c2,2.8,4.1,5.6,6.3,8.3L29.5,226z M17.4,208.8
		c-1.8-3-3.4-6.2-5-9.3l1.8-0.9c1.5,3.1,3.1,6.2,4.9,9.2L17.4,208.8z M8.2,189.7c-1.2-3.3-2.4-6.7-3.3-10l1.9-0.6
		c1,3.3,2.1,6.6,3.3,9.9L8.2,189.7z M2.4,169.4c-0.7-3.4-1.2-7-1.6-10.4l2-0.2c0.4,3.4,0.9,6.9,1.6,10.3L2.4,169.4z M0.1,148.4
		c0-1.2-0.1-2.5-0.1-3.7c0-2.3,0.1-4.6,0.2-6.8l2,0.1c-0.1,2.2-0.2,4.5-0.2,6.7c0,1.2,0,2.5,0.1,3.7L0.1,148.4z M3.2,127.6l-2-0.3
		c0.5-3.5,1.1-7,1.9-10.4l2,0.4C4.2,120.7,3.6,124.1,3.2,127.6z M7.7,107.3l-1.9-0.6c1-3.3,2.3-6.7,3.6-9.9l1.9,0.8
		C9.9,100.7,8.7,104,7.7,107.3z M15.5,88l-1.8-0.9c1.6-3.1,3.3-6.2,5.2-9.2l1.7,1.1C18.8,81.9,17.1,84.9,15.5,88z M26.5,70.3
		l-1.6-1.2c2.1-2.8,4.3-5.6,6.6-8.2l1.5,1.3C30.7,64.8,28.5,67.6,26.5,70.3z M40.2,54.7l-1.4-1.4c2.5-2.4,5.2-4.8,7.9-7l1.3,1.5
		C45.3,50,42.7,52.3,40.2,54.7z M56.3,41.6l-1.1-1.6c2.9-2,5.9-3.9,9-5.6l1,1.7C62.1,37.8,59.2,39.6,56.3,41.6z M74.4,31.3l-0.8-1.8
		c3.2-1.5,6.5-2.8,9.8-4l0.7,1.9C80.8,28.5,77.5,29.8,74.4,31.3z"/>
	<path fill="#4A7EDB" d="M167.6,264.9L167,263c3.3-1.1,6.5-2.4,9.7-3.7l0.8,1.8C174.3,262.5,170.9,263.8,167.6,264.9z M187,256.5
		l-0.9-1.8c3-1.6,6.1-3.4,9-5.3l1.1,1.7C193.1,253,190.1,254.8,187,256.5z M204.7,244.9l-1.2-1.6c2.7-2.1,5.4-4.4,7.9-6.7l1.4,1.5
		C210.2,240.5,207.5,242.8,204.7,244.9z M220.3,230.6l-1.5-1.4c2.3-2.5,4.6-5.2,6.7-7.9l1.6,1.2
		C224.9,225.3,222.6,228.1,220.3,230.6z M233.2,214l-1.7-1.1c1.9-2.9,3.7-5.9,5.3-8.9l1.8,1C237,208,235.2,211,233.2,214z
		 M243.3,195.4l-1.8-0.8c1.4-3.2,2.6-6.4,3.8-9.7l1.9,0.6C246,188.9,244.7,192.2,243.3,195.4z M250.1,175.4l-1.9-0.5
		c0.8-3.4,1.5-6.8,2.1-10.2l2,0.3C251.6,168.5,250.9,172,250.1,175.4z M253.4,154.5l-2-0.2c0.2-3.2,0.4-6.5,0.4-9.7l0-0.7l2,0l0,0.7
		C253.8,147.9,253.7,151.3,253.4,154.5z M251.3,133.6c-0.3-3.5-0.8-6.9-1.3-10.3l2-0.3c0.6,3.4,1.1,7,1.4,10.5L251.3,133.6z
		 M247.8,113.1c-0.9-3.3-1.9-6.7-3-10l1.9-0.7c1.2,3.3,2.2,6.7,3.1,10.1L247.8,113.1z M240.9,93.5c-1.4-3.2-3-6.3-4.7-9.3l1.8-1
		c1.7,3.1,3.3,6.3,4.7,9.5L240.9,93.5z M230.8,75.3c-1.9-2.9-4-5.7-6.1-8.4l1.6-1.2c2.2,2.8,4.3,5.6,6.2,8.5L230.8,75.3z M217.9,59
		c-2.4-2.5-4.9-5-7.4-7.3l1.3-1.5c2.6,2.3,5.2,4.8,7.6,7.4L217.9,59z M202.4,45.1c-2.8-2.1-5.6-4.1-8.5-5.9l1.1-1.7
		c3,1.9,5.9,3.9,8.7,6L202.4,45.1z M184.9,34c-2.1-1.1-4.2-2.1-6.4-3.1c-1-0.5-2-0.9-3-1.3l0.8-1.8c1,0.4,2.1,0.9,3.1,1.4
		c2.2,1,4.4,2.1,6.5,3.2L184.9,34z"/>
	<g>
		<path fill="#4A7EDB" d="M125.1,241.6c-7.8,0-14.2,6.2-14.2,14.2h28.3C139.3,247.7,132.9,241.6,125.1,241.6z"/>
		<rect x="109.1" y="255.2" fill="#4A7EDB" width="32" height="5"/>
		<path fill="#4A7EDB" d="M111.4,259.7v10h28v-10H111.4z M122.4,268.7h-5v-8h5V268.7z M133.4,269.7h-5v-10h5V269.7z"/>
		<rect x="123.5" y="230.5" fill="#4A7EDB" width="3" height="12"/>
		<rect x="119" y="231.6" fill="#4A7EDB" width="6" height="4"/>
		<rect x="103.4" y="268.3" fill="#4A7EDB" width="44" height="5"/>
		<path fill="#4A7EDB" d="M105.4,269.7v19h40v-19H105.4z M116.4,286.7h-5v-13h5V286.7z M128.4,286.7h-5v-13h5V286.7z M139.4,286.7
			h-5v-13h5V286.7z"/>
		<rect x="103.4" y="284.2" fill="#4A7EDB" width="44" height="5"/>
	</g>
	<path fill-rule="evenodd" clip-rule="evenodd" fill="#4A7EDB" d="M132.1,186.5c-0.8,1.3-2.5,1.7-3.8,1l-15.8-9.3
		c-1.3-0.8-1.7-2.4-1-3.8l9.3-15.8c0.8-1.3,2.5-1.7,3.8-1l15.8,9.3c1.3,0.8,1.7,2.5,1,3.8L132.1,186.5z"/>
	<path fill-rule="evenodd" clip-rule="evenodd" fill="#4A7EDB" d="M145.8,163.4c-0.8,1.3-2.5,1.7-3.8,0.8l-15.5-9.8
		c-1.3-0.8-1.7-2.5-0.8-3.8l9.8-15.5c0.8-1.3,2.5-1.7,3.8-0.8l15.5,9.8c1.3,0.8,1.7,2.5,0.8,3.8L145.8,163.4z"/>
	<path fill-rule="evenodd" clip-rule="evenodd" fill="#4A7EDB" d="M160.3,140.9c-0.9,1.3-2.6,1.6-3.8,0.7l-15.1-10.4
		c-1.3-0.9-1.6-2.6-0.7-3.8l10.4-15.1c0.9-1.3,2.6-1.6,3.8-0.7L170,122c1.3,0.9,1.6,2.6,0.7,3.8L160.3,140.9z"/>
	<path fill-rule="evenodd" clip-rule="evenodd" fill="#4A7EDB" d="M175.6,118.9c-0.9,1.2-2.6,1.5-3.8,0.6l-14.7-10.9
		c-1.2-0.9-1.5-2.6-0.6-3.8L167.3,90c0.9-1.2,2.6-1.5,3.8-0.6l14.7,10.9c1.2,0.9,1.5,2.6,0.6,3.8L175.6,118.9z"/>
	<path fill-rule="evenodd" clip-rule="evenodd" fill="#4A7EDB" d="M116.4,153.2c1.3,0.7,1.8,2.4,1.1,3.7l-8.7,16.1
		c-0.7,1.3-2.4,1.8-3.7,1.1L89,165.5c-1.3-0.7-1.8-2.4-1.1-3.7l8.7-16.1c0.7-1.3,2.4-1.8,3.7-1.1L116.4,153.2z"/>
	<path fill-rule="evenodd" clip-rule="evenodd" fill="#4A7EDB" d="M130.5,129.5c1.3,0.8,1.7,2.4,1,3.8l-9.3,15.8
		c-0.8,1.3-2.3,1.8-3.6,1l-15.9-9.3c-1.3-0.8-1.7-2.4-1-3.8l9.3-15.8c0.8-1.3,2.4-1.7,3.8-1L130.5,129.5z"/>
	<path fill-rule="evenodd" clip-rule="evenodd" fill="#4A7EDB" d="M91.9,140.4c1.4,0.7,1.9,2.3,1.3,3.7l-8,16.5
		c-0.7,1.4-2.3,1.9-3.7,1.3l-16.5-8c-1.4-0.7-1.9-2.3-1.3-3.7l8-16.5c0.7-1.4,2.3-1.9,3.7-1.3L91.9,140.4z"/>
	<path fill="#4A7EDB" d="M116.8,4.6c-1.4-2.7-4.3-4.6-7.6-4.6c-4.7,0-8.6,3.8-8.6,8.6c0,4.7,3.8,8.6,8.6,8.6c1.4,0,2.8-0.4,4-1
		c-0.1-0.8-0.2-1.6-0.2-2.4C113,10.1,114.5,6.9,116.8,4.6z"/>
	<path fill="#4A7EDB" d="M119.5,24.8c-1.8-1-3.4-2.5-4.5-4.3c-1.9-1-3.9-1.7-5.8-1.7c-8,0-15.6,10.7-14.5,14.5
		c0.6,1.8,6.5,2.7,12.9,2.8c0.7-1.2,1.4-2.2,1.9-2.9C111.8,30,115.4,26.7,119.5,24.8z"/>
	<path fill="#4A7EDB" d="M138.7,13.7c0,0.8-0.1,1.6-0.2,2.4c1.2,0.6,2.6,1,4,1c4.7,0,8.6-3.8,8.6-8.6c0-4.7-3.8-8.6-8.6-8.6
		c-3.3,0-6.2,1.9-7.6,4.6C137.2,6.9,138.7,10.2,138.7,13.7z"/>
	<path fill="#4A7EDB" d="M142.4,18.9c-2,0-3.9,0.7-5.7,1.7c-1.1,1.8-2.7,3.2-4.5,4.3c5.2,2.3,10,6.8,12.4,11.2
		c5.8-0.2,11.2-1.1,12.3-2.7C159.5,29.7,150.4,18.9,142.4,18.9z"/>
	<path fill="#4A7EDB" d="M143.4,40.1c-0.1-0.4-0.2-0.9-0.4-1.3c-0.3-0.9-0.8-1.8-1.4-2.7c0-0.1-0.1-0.1-0.1-0.2
		c-1.1-1.7-2.7-3.4-4.4-4.9c-0.5-0.4-1-0.9-1.6-1.3c-1.7-1.2-3.5-2.3-5.4-2.9c-0.6-0.2-1.2-0.4-1.8-0.5c-0.8,0.1-1.6,0.2-2.4,0.2
		c-0.8,0-1.7-0.1-2.5-0.2c-0.5,0.1-0.9,0.2-1.4,0.4c-4.6,1.5-8.8,5.5-11.3,9.4c-0.3,0.4-0.5,0.8-0.7,1.2c-0.3,0.5-0.5,0.9-0.7,1.4
		c-0.4,0.9-0.7,1.8-0.8,2.6c-0.1,0.4-0.1,0.8-0.1,1.1c0,0.3,0.1,0.7,0.1,0.9c0,0.1,0.1,0.3,0.2,0.4c0,0,0.1,0.1,0.1,0.1
		c0.1,0.1,0.1,0.2,0.2,0.2c0.1,0.1,0.1,0.1,0.2,0.1c0.1,0.1,0.2,0.1,0.3,0.2c0.1,0.1,0.2,0.1,0.3,0.2c0.1,0.1,0.2,0.1,0.3,0.2
		c0.1,0.1,0.3,0.1,0.4,0.1c0.1,0.1,0.3,0.1,0.4,0.2c0.1,0,0.3,0.1,0.5,0.1c0.1,0,0.3,0.1,0.4,0.1c0.2,0,0.3,0.1,0.5,0.1
		c0.2,0,0.3,0.1,0.5,0.1c0.2,0,0.4,0.1,0.6,0.1c0.2,0,0.3,0.1,0.5,0.1c0.2,0,0.4,0.1,0.6,0.1c0.2,0,0.4,0.1,0.6,0.1
		c0.2,0,0.4,0.1,0.6,0.1c0.2,0,0.4,0.1,0.6,0.1c0.2,0,0.4,0,0.7,0.1c0.2,0,0.4,0,0.7,0.1c0.2,0,0.5,0,0.7,0.1c0.2,0,0.5,0,0.7,0.1
		c0.2,0,0.5,0,0.7,0c0.2,0,0.5,0,0.7,0c0.2,0,0.5,0,0.7,0c0.3,0,0.5,0,0.8,0c0.2,0,0.5,0,0.7,0c0.3,0,0.5,0,0.8,0c0.2,0,0.5,0,0.7,0
		c0.3,0,0.5,0,0.8,0c0.3,0,0.5,0,0.8,0c0.2,0,0.5,0,0.7,0c0.3,0,0.5,0,0.8,0c0.2,0,0.5,0,0.7,0c0.3,0,0.5,0,0.8,0c0.2,0,0.5,0,0.7,0
		c0.2,0,0.5,0,0.7,0c0.2,0,0.5,0,0.7,0c0.2,0,0.5,0,0.7-0.1c0.2,0,0.5,0,0.7-0.1c0.2,0,0.5,0,0.7-0.1c0.2,0,0.5,0,0.7-0.1
		c0.2,0,0.4-0.1,0.6-0.1c0.2,0,0.5-0.1,0.7-0.1c0.2,0,0.4-0.1,0.6-0.1c0.2,0,0.4-0.1,0.7-0.1c0.2,0,0.4-0.1,0.6-0.1
		c0.2,0,0.4-0.1,0.6-0.1c0.2,0,0.4-0.1,0.5-0.1c0.2,0,0.4-0.1,0.6-0.1c0.2,0,0.3-0.1,0.5-0.1c0.2,0,0.3-0.1,0.5-0.1
		c0.2,0,0.3-0.1,0.5-0.2c0.1,0,0.3-0.1,0.4-0.1c0.1-0.1,0.3-0.1,0.4-0.2c0.1-0.1,0.3-0.1,0.4-0.2c0.1-0.1,0.2-0.1,0.4-0.2
		c0.1-0.1,0.2-0.1,0.3-0.2c0.1-0.1,0.2-0.2,0.3-0.2c0.1,0,0.1-0.1,0.2-0.1c0.1-0.1,0.3-0.2,0.3-0.4c0,0,0,0,0,0
		c0.4-0.5,0.6-1.2,0.5-2C143.6,40.9,143.5,40.5,143.4,40.1z"/>
	<path fill="#4A7EDB" d="M134,7.6c-0.3-0.4-0.6-0.7-0.9-1.1c-0.7-0.7-1.5-1.3-2.4-1.8c-1.4-0.8-3.1-1.2-4.9-1.2
		c-0.7,0-1.4,0.1-2.1,0.2c-2,0.4-3.8,1.4-5.2,2.8c-0.3,0.3-0.6,0.7-0.9,1c-1.3,1.7-2.1,3.9-2.1,6.2c0,0.2,0,0.3,0,0.5
		c0.1,2.6,1.2,5,3,6.7c1.3,1.3,2.9,2.2,4.8,2.7c0.8-0.1,1.6-0.2,2.3-0.2c0.8,0,1.6,0.1,2.4,0.2c0.9-0.2,1.7-0.5,2.5-1
		c0.9-0.5,1.7-1.1,2.4-1.8c1.7-1.7,2.9-4.1,3-6.8c0-0.2,0-0.3,0-0.5C136.1,11.4,135.3,9.3,134,7.6z"/>
</g>
<g>
</g>
<g>
</g>
<g>
</g>
<g>
</g>
<g>
</g>
<g>
</g>
<g>
</g>
<g>
</g>
<g>
</g>
<g>
</g>
<g>
</g>
<g>
</g>
<g>
</g>
<g>
</g>
<g>
</g>
</svg>
