<?xml version="1.0" encoding="utf-8"?>
<!-- Generator: Adobe Illustrator 17.0.2, SVG Export Plug-In . SVG Version: 6.00 Build 0)  -->
<!DOCTYPE svg PUBLIC "-//W3C//DTD SVG 1.1//EN" "http://www.w3.org/Graphics/SVG/1.1/DTD/svg11.dtd">
<svg version="1.1" id="Layer_1" xmlns="http://www.w3.org/2000/svg" xmlns:xlink="http://www.w3.org/1999/xlink" x="0px" y="0px"
	 width="169px" height="50px" viewBox="0 0 169 50" enable-background="new 0 0 169 50" xml:space="preserve">
<g>
	<path fill="none" d="M127.811,19.12l7.23-0.581l-2.618-3.63C130.523,16.063,128.916,17.506,127.811,19.12z"/>
	<path fill="none" d="M145.094,12.289l-0.882,5.308l5.926-2.929C148.94,13.512,147.216,12.672,145.094,12.289z"/>
	<path fill="none" d="M154.222,20.041l3.048,0.427c0.81-3.09,0.101-5.909-1.786-8.08l-2.735,1.731
		C154.089,15.747,154.647,17.796,154.222,20.041z"/>
	<path fill="none" d="M151.679,13.906c-1.459-1.464-3.648-2.497-6.374-2.887l-0.127,0.765c2.36,0.388,4.268,1.305,5.569,2.583
		L151.679,13.906z"/>
	<path fill="none" d="M155.256,12.138c-2.041-2.186-5.322-3.666-9.469-4.023l-0.4,2.406c2.965,0.388,5.339,1.499,6.898,3.085
		L155.256,12.138z"/>
	<path fill="none" d="M152.623,19.817l0.972,0.136c0.353-2.074-0.173-3.966-1.404-5.481l-0.858,0.543
		C152.395,16.357,152.871,18.008,152.623,19.817z"/>
	<path fill="none" d="M135.251,34.696c4.345-0.143,8.722-1.43,12.439-3.472l-1.759-1.587c-2.774,1.477-5.972,2.447-9.183,2.68
		L135.251,34.696z"/>
	<path fill="none" d="M137.058,31.825c2.978-0.246,5.935-1.151,8.514-2.513l-0.551-0.498c-2.279,1.187-4.868,1.991-7.487,2.254
		L137.058,31.825z"/>
	<path fill="none" d="M150.441,23.621l-7.227,0.581l2.618,3.629C147.73,26.677,149.337,25.234,150.441,23.621z"/>
	<path fill="none" d="M150.771,15.371l-5.415,3.427l6.628,0.93C152.168,18.092,151.725,16.597,150.771,15.371z"/>
	<path fill="none" d="M146.103,28.207l0.415,0.575c2.397-1.424,4.398-3.252,5.679-5.302l-1.06,0.085
		C149.961,25.351,148.198,26.946,146.103,28.207z"/>
	<path fill="none" d="M146.788,29.156l1.322,1.833c3.554-2.034,6.461-4.762,8.093-7.831l-3.323,0.267
		C151.535,25.647,149.38,27.628,146.788,29.156z"/>
	<path fill="none" d="M132.152,14.533l-0.415-0.575c-2.396,1.424-4.397,3.252-5.679,5.302l1.06-0.085
		C128.295,17.39,130.058,15.795,132.152,14.533z"/>
	<path fill="none" d="M144.659,28.489l-3.51-3.167l-3.302,5.247C140.229,30.3,142.578,29.562,144.659,28.489z"/>
	<path fill="none" d="M133.234,13.926c2.278-1.187,4.867-1.991,7.484-2.254l0.476-0.756c-2.976,0.246-5.933,1.151-8.512,2.513
		L133.234,13.926z"/>
	<path fill="none" d="M137.103,17.418l3.301-5.247c-2.381,0.27-4.729,1.008-6.81,2.081L137.103,17.418z"/>
	<path fill="none" d="M131.466,13.583l-1.321-1.832c-3.553,2.033-6.461,4.762-8.093,7.831l3.319-0.267
		C126.717,17.093,128.873,15.112,131.466,13.583z"/>
	<path fill="none" d="M132.323,13.104c2.774-1.477,5.971-2.447,9.181-2.68L143,8.045c-4.344,0.143-8.72,1.43-12.436,3.472
		L132.323,13.104z"/>
	<path fill="#97BF1E" d="M130.145,11.752l-0.27-0.374c-3.75,2.135-6.812,5.017-8.498,8.259l0.675-0.054
		C123.684,16.514,126.592,13.785,130.145,11.752z"/>
	<path fill="#97BF1E" d="M143,8.045l0.302-0.48c-4.573,0.122-9.19,1.472-13.097,3.628l0.359,0.324
		C134.281,9.475,138.657,8.188,143,8.045z"/>
	<path fill="#97BF1E" d="M157.269,20.469l0.619,0.087c0.893-3.263,0.153-6.24-1.847-8.519l-0.558,0.353
		C157.37,14.56,158.079,17.379,157.269,20.469z"/>
	<path fill="#97BF1E" d="M155.256,12.138l0.606-0.299c-2.138-2.308-5.605-3.862-9.994-4.209l-0.081,0.485
		C149.934,8.472,153.215,9.951,155.256,12.138z"/>
	<path fill="#97BF1E" d="M148.11,30.989l0.27,0.374c3.751-2.135,6.812-5.016,8.498-8.259l-0.675,0.054
		C154.571,26.227,151.664,28.955,148.11,30.989z"/>
	<path fill="#97BF1E" d="M135.251,34.696l-0.302,0.48c4.574-0.122,9.192-1.472,13.1-3.628l-0.359-0.324
		C143.973,33.266,139.596,34.553,135.251,34.696z"/>
	<path fill="#97BF1E" d="M151.984,19.728l0.639,0.09c0.248-1.809-0.228-3.46-1.291-4.801l-0.561,0.355
		C151.725,16.597,152.168,18.092,151.984,19.728z"/>
	<path fill="#97BF1E" d="M150.747,14.366c-1.302-1.277-3.209-2.194-5.569-2.583l-0.084,0.505c2.123,0.384,3.846,1.224,5.044,2.379
		L150.747,14.366z"/>
	<path fill="#97BF1E" d="M132.422,14.909l-0.271-0.375c-2.094,1.262-3.857,2.857-5.034,4.642l0.693-0.056
		C128.916,17.506,130.523,16.063,132.422,14.909z"/>
	<path fill="#97BF1E" d="M137.533,31.069c2.618-0.263,5.208-1.067,7.487-2.254l-0.361-0.326c-2.081,1.073-4.43,1.811-6.812,2.081
		L137.533,31.069z"/>
	<path fill="#97BF1E" d="M133.594,14.252c2.081-1.073,4.429-1.81,6.81-2.081l0.314-0.499c-2.617,0.263-5.206,1.067-7.484,2.254
		L133.594,14.252z"/>
	<path fill="#97BF1E" d="M145.832,27.831l0.271,0.376c2.095-1.262,3.857-2.857,5.034-4.642l-0.697,0.056
		C149.337,25.234,147.73,26.677,145.832,27.831z"/>
	<path fill="none" d="M132.152,14.533l-0.415-0.575c-2.396,1.424-4.397,3.252-5.679,5.302l1.06-0.085l0.693-0.056l7.23-0.581
		l-2.618-3.63L132.152,14.533z"/>
	<path fill="none" d="M144.91,5.703l-7.322,11.639c0.936-0.336,1.936-0.536,2.931-0.562L144.91,5.703z"/>
	<path fill="none" d="M144.307,21.501c0.855-2.156-0.772-3.961-3.635-4.033c-2.859-0.072-5.87,1.616-6.725,3.772
		c-0.854,2.153,0.773,3.958,3.632,4.03C140.442,25.342,143.454,23.654,144.307,21.501z"/>
	<path fill="none" d="M145.331,21.205l18,0.453l-18.047-2.531C145.531,19.747,145.56,20.455,145.331,21.205z"/>
	<path fill="none" d="M132.924,21.535l-18-0.453l18.047,2.531C132.724,22.994,132.695,22.286,132.924,21.535z"/>
	<path fill="none" d="M144.659,28.489l-3.51-3.167l-3.302,5.247l-0.314,0.499l-0.476,0.756c2.978-0.246,5.935-1.151,8.514-2.513
		l-0.551-0.498L144.659,28.489z"/>
	<path fill="none" d="M145.832,27.831l0.271,0.376l0.415,0.575c2.397-1.424,4.398-3.252,5.679-5.302l-8.983,0.722L145.832,27.831z"
		/>
	<path fill="none" d="M133.234,13.926l0.36,0.325l3.508,3.166l3.301-5.247l0.314-0.499l0.476-0.756
		c-2.976,0.246-5.933,1.151-8.512,2.513L133.234,13.926z"/>
	<path fill="none" d="M133.345,37.038l7.322-11.64c-0.936,0.336-1.936,0.536-2.931,0.562L133.345,37.038z"/>
	<path fill="none" d="M151.332,15.016l-0.561,0.355l-5.415,3.427l6.628,0.93l0.639,0.09l0.972,0.136
		c0.353-2.074-0.173-3.966-1.404-5.481L151.332,15.016z"/>
	<path fill="none" d="M150.747,14.366l0.932-0.461c-1.459-1.464-3.648-2.497-6.374-2.887l-0.127,0.765l-0.084,0.505l-0.882,5.308
		l5.926-2.929L150.747,14.366z"/>
	<path fill="#06276A" d="M154.222,20.041c0.425-2.245-0.133-4.294-1.473-5.922l5.358-3.391l-5.821,2.877
		c-1.559-1.586-3.933-2.697-6.898-3.085L146.804,2l-5.3,8.424c-3.21,0.233-6.407,1.203-9.181,2.68l-3.446-3.11l2.59,3.59
		c-2.593,1.529-4.749,3.509-6.095,5.732l-16.186,1.302l4.823,0.676l19.14,2.684c-0.067-0.118-0.126-0.239-0.176-0.364l-18.047-2.531
		l18,0.453c0.032-0.105,0.069-0.211,0.111-0.318c0.042-0.107,0.089-0.213,0.14-0.317c0.365-0.747,0.949-1.44,1.678-2.035
		c0.147-0.12,0.3-0.236,0.459-0.348c0.515-0.364,1.086-0.682,1.692-0.944c0.191-0.082,0.385-0.159,0.583-0.23l7.322-11.639
		l-4.391,11.078c0.142-0.004,0.284-0.004,0.426,0c0.143,0.004,0.284,0.011,0.421,0.022c0.955,0.075,1.778,0.321,2.432,0.697
		c0.137,0.078,0.266,0.162,0.387,0.252c0.391,0.287,0.701,0.629,0.921,1.012c0.067,0.117,0.126,0.239,0.176,0.364l18.047,2.531
		l-18-0.453c-0.032,0.105-0.069,0.211-0.111,0.318s-0.089,0.213-0.141,0.317c-0.365,0.747-0.949,1.44-1.678,2.035
		c-0.147,0.12-0.3,0.236-0.458,0.348c-0.516,0.365-1.089,0.684-1.697,0.946c-0.189,0.081-0.382,0.157-0.577,0.227l-7.322,11.64
		l4.391-11.078c-0.143,0.004-0.287,0.004-0.43,0c-0.142-0.004-0.281-0.011-0.418-0.022c-0.955-0.075-1.778-0.321-2.432-0.696
		c-0.138-0.079-0.268-0.164-0.391-0.254l-2.618,15.753l3.502-5.565l0.302-0.48l1.497-2.379c3.212-0.233,6.41-1.203,9.183-2.68
		l1.759,1.587l0.359,0.324l1.329,1.199l-0.999-1.385l-0.27-0.374l-1.322-1.833c2.592-1.529,4.747-3.509,6.092-5.731l16.186-1.302
		L154.222,20.041z M127.811,19.12l-0.693,0.056l-1.06,0.085c1.282-2.051,3.283-3.879,5.679-5.302l0.415,0.575l0.271,0.375
		l2.618,3.63L127.811,19.12z M140.718,11.672l-0.314,0.499l-3.301,5.247l-3.508-3.166l-0.36-0.325l-0.552-0.498
		c2.578-1.362,5.535-2.266,8.512-2.513L140.718,11.672z M144.211,17.597l0.882-5.308l0.084-0.505l0.127-0.765
		c2.726,0.39,4.915,1.423,6.374,2.887l-0.932,0.461l-0.61,0.301L144.211,17.597z M153.595,19.954l-0.972-0.136l-0.639-0.09
		l-6.628-0.93l5.415-3.427l0.561-0.355l0.858-0.543C153.422,15.988,153.948,17.88,153.595,19.954z M137.058,31.825l0.476-0.756
		l0.314-0.499l3.302-5.247l3.51,3.167l0.361,0.326l0.551,0.498C142.992,30.674,140.035,31.579,137.058,31.825z M146.518,28.782
		l-0.415-0.575l-0.271-0.376l-2.618-3.629l8.983-0.722C150.916,25.53,148.915,27.358,146.518,28.782z"/>
	<path fill="#97BF1E" d="M144.307,21.501c0.855-2.156-0.772-3.961-3.635-4.033c-2.859-0.072-5.87,1.616-6.725,3.772
		c-0.854,2.153,0.773,3.958,3.632,4.03C140.442,25.342,143.454,23.654,144.307,21.501z M136.951,21.316
		c0.359-0.905,1.624-1.616,2.825-1.586c1.205,0.03,1.887,0.791,1.528,1.695c-0.359,0.905-1.622,1.613-2.827,1.583
		C137.275,22.978,136.593,22.221,136.951,21.316z"/>
	<g>
		<path fill="#080808" d="M6.764,3.21l0.159,2.176H6.559L6.536,5.112C6.468,4.269,5.5,3.37,4.099,3.37
			c-2.016,0-2.756,2.084-2.756,3.93c0,2.517,1.515,3.622,3.075,3.622c1.082,0,1.971-0.638,2.631-2.005l0.285,0.148
			c-0.786,1.709-1.982,2.278-3.28,2.278c-2.073,0-3.952-1.424-3.952-4.055c0-2.175,1.367-4.237,3.998-4.237
			c0.991,0,1.686,0.171,2.312,0.558L6.399,3.21H6.764z"/>
		<path fill="#080808" d="M10.815,5.796c1.788,0,2.551,1.401,2.551,2.757s-0.763,2.756-2.551,2.756S8.264,9.908,8.264,8.552
			S9.027,5.796,10.815,5.796z M10.815,11.058c0.558,0,1.56-0.319,1.56-2.506s-1.002-2.506-1.56-2.506
			c-0.558,0-1.56,0.319-1.56,2.506S10.257,11.058,10.815,11.058z"/>
		<path fill="#080808" d="M13.878,11.183v-0.251h0.444c0.251,0,0.41-0.034,0.41-0.273V6.616c0-0.217-0.273-0.24-0.718-0.24h-0.137
			v-0.25c0.182-0.012,0.729-0.057,1.72-0.433v0.661c0.524-0.376,0.957-0.558,1.424-0.558c0.558,0,1.036,0.205,1.31,0.638
			c0.626-0.501,1.162-0.638,1.606-0.638c0.82,0,1.652,0.592,1.652,1.765v3.098c0,0.239,0.16,0.273,0.41,0.273h0.444v0.251h-2.449
			v-0.251h0.319c0.251,0,0.41-0.034,0.41-0.273V7.595c0-1.059-0.581-1.446-1.15-1.446c-0.285,0-0.638,0.091-1.116,0.547
			c0.102,0.285,0.137,0.524,0.137,0.843v3.121c0,0.239,0.16,0.273,0.41,0.273h0.319v0.251h-2.335v-0.251h0.33
			c0.25,0,0.41-0.034,0.41-0.273V7.538c0-0.717-0.273-1.39-1.014-1.39c-0.421,0-0.831,0.239-1.116,0.547v3.964
			c0,0.239,0.159,0.273,0.41,0.273h0.319v0.251H13.878z"/>
		<path fill="#080808" d="M23.132,11.183v-0.251h0.444c0.251,0,0.41-0.034,0.41-0.273V6.616c0-0.217-0.273-0.24-0.718-0.24h-0.137
			v-0.25c0.182-0.012,0.729-0.057,1.72-0.433v0.661c0.524-0.376,0.957-0.558,1.424-0.558c0.558,0,1.036,0.205,1.31,0.638
			c0.626-0.501,1.162-0.638,1.606-0.638c0.82,0,1.652,0.592,1.652,1.765v3.098c0,0.239,0.16,0.273,0.41,0.273h0.444v0.251h-2.449
			v-0.251h0.319c0.251,0,0.41-0.034,0.41-0.273V7.595c0-1.059-0.581-1.446-1.15-1.446c-0.285,0-0.638,0.091-1.116,0.547
			c0.102,0.285,0.137,0.524,0.137,0.843v3.121c0,0.239,0.159,0.273,0.41,0.273h0.319v0.251h-2.335v-0.251h0.33
			c0.25,0,0.41-0.034,0.41-0.273V7.538c0-0.717-0.273-1.39-1.014-1.39c-0.421,0-0.832,0.239-1.116,0.547v3.964
			c0,0.239,0.159,0.273,0.41,0.273h0.319v0.251H23.132z"/>
		<path fill="#080808" d="M35.781,11.183v-0.717c-0.854,0.763-1.378,0.843-1.857,0.843c-0.33,0-1.299-0.091-1.299-1.674V6.616
			c0-0.217-0.273-0.24-0.717-0.24h-0.137v-0.25c0.182-0.012,0.729-0.057,1.72-0.433v3.941c0,0.763,0.228,1.241,0.9,1.241
			c0.501,0,1.093-0.399,1.39-0.729V6.616c0-0.217-0.274-0.24-0.718-0.24h-0.137v-0.25c0.182-0.012,0.729-0.057,1.72-0.433v4.966
			c0,0.239,0.16,0.273,0.41,0.273H37.5v0.251H35.781z"/>
		<path fill="#080808" d="M38.231,11.183v-0.251h0.444c0.251,0,0.41-0.034,0.41-0.273V6.616c0-0.217-0.273-0.24-0.718-0.24h-0.137
			v-0.25c0.661-0.08,1.105-0.205,1.72-0.433v0.683c0.535-0.376,1.036-0.581,1.595-0.581c1.606,0,1.595,1.697,1.595,1.97v2.893
			c0,0.239,0.16,0.273,0.41,0.273h0.444v0.251H41.42v-0.251h0.444c0.25,0,0.41-0.034,0.41-0.273V7.663
			c0-1.093-0.535-1.481-1.162-1.481c-0.433,0-0.888,0.273-1.162,0.581v3.895c0,0.239,0.16,0.273,0.41,0.273h0.444v0.251H38.231z"/>
		<path fill="#080808" d="M44.671,11.183v-0.251h0.444c0.251,0,0.41-0.034,0.41-0.273V6.616c0-0.217-0.273-0.24-0.718-0.24h-0.137
			v-0.25c0.182-0.012,0.729-0.057,1.72-0.433v4.966c0,0.239,0.159,0.273,0.41,0.273h0.444v0.251H44.671z M45.946,3.21
			c0.33,0,0.57,0.24,0.57,0.57c0,0.331-0.239,0.57-0.57,0.57c-0.33,0-0.569-0.239-0.569-0.57C45.377,3.449,45.616,3.21,45.946,3.21z
			"/>
		<path fill="#080808" d="M47.444,6.206V5.921c0.547-0.034,1.446-0.296,1.446-1.697V4.099h0.274v1.823
			c0.797,0.011,1.014-0.034,1.8-0.171v0.455h-1.8v3.656c0,0.854,0.524,1.036,0.854,1.036c0.512,0,0.945-0.524,1.048-1.059
			l0.251,0.102c-0.364,1.173-1.025,1.367-1.549,1.367c-0.957,0-1.469-0.683-1.469-1.651V6.206H47.444z"/>
		<path fill="#080808" d="M57.401,6.171H57.23c-0.501,0-0.683,0.809-1.196,2.107l-1.515,3.827c-0.262,0.672-0.763,1.629-1.743,1.629
			c-0.547,0-0.923-0.342-0.923-0.752c0-0.273,0.159-0.535,0.49-0.535c0.433,0,0.513,0.342,0.524,0.421
			c0.034,0.182,0.011,0.456,0.285,0.456c0.319,0,0.752-0.433,1.093-1.31l0.285-0.74l-1.982-4.692
			c-0.068-0.171-0.205-0.41-0.615-0.41h-0.228v-0.25h2.346v0.25h-0.387c-0.421,0-0.273,0.353-0.251,0.41l1.538,3.656l0.478-1.321
			c0.604-1.686,0.672-2.164,0.672-2.392c0-0.114-0.023-0.353-0.353-0.353h-0.307v-0.25h1.959V6.171z"/>
		<path fill="#080808" d="M3.495,15.931c1.253,0,2.813,0.262,2.813,2.039c0,1.674-1.697,2.062-2.654,2.062v0.079
			c1.082,0.126,1.572,0.945,2.278,2.278c0.217,0.41,0.581,1.162,0.934,1.162c0.194,0,0.296-0.228,0.296-0.421v-0.137H7.47v0.16
			c0,0.398-0.285,0.911-0.911,0.911c-0.843,0-1.287-0.626-1.731-1.367c-0.159-0.251-0.285-0.524-0.421-0.786
			c-0.604-1.173-1.128-1.97-2.21-1.834v2.996c0,0.501,0.285,0.512,0.433,0.512h0.649v0.319H0.067v-0.319h0.649
			c0.148,0,0.433-0.011,0.433-0.512v-6.31c0-0.501-0.285-0.512-0.433-0.512H0.067v-0.319H3.495z M2.196,19.758
			c0.274,0.034,0.558,0.034,0.831,0.034c0.706,0,2.187-0.148,2.187-1.834c0-1.173-0.911-1.708-1.982-1.708
			c-0.399,0-0.706,0.079-1.037,0.228V19.758z"/>
		<path fill="#080808" d="M9.118,20.897c-0.012,0.137-0.012,0.284-0.012,0.421c0,1.971,0.957,2.301,1.629,2.301
			c0.558,0,1.162-0.251,1.583-1.059l0.205,0.114c-0.49,0.911-1.059,1.355-2.004,1.355c-1.424,0-2.403-1.071-2.403-2.654
			c0-1.401,0.729-2.859,2.403-2.859c1.412,0,2.073,1.207,2.05,2.381H9.118z M11.635,20.647v-0.16c0-1.412-0.649-1.72-1.139-1.72
			c-0.307,0-1.23,0.125-1.378,1.879H11.635z"/>
		<path fill="#080808" d="M16.637,18.642l0.046,1.424h-0.285v-0.182c0-0.478-0.695-1.116-1.515-1.116
			c-0.649,0-0.843,0.478-0.843,0.831c0,0.558,0.695,0.797,1.321,1.094c0.672,0.319,1.583,0.797,1.583,1.776
			c0,0.615-0.49,1.56-1.8,1.56c-0.592,0-1.139-0.216-1.481-0.376v0.251h-0.285l-0.057-1.492h0.285
			c0.023,0.786,0.866,1.367,1.583,1.367c0.661,0,1.014-0.479,1.014-1.003c0-0.74-0.752-0.979-1.617-1.435
			c-0.752-0.399-1.185-0.763-1.185-1.424c0-0.831,0.638-1.401,1.652-1.401c0.307,0,0.82,0.057,1.298,0.331v-0.205H16.637z"/>
		<path fill="#080808" d="M18.689,20.897c-0.012,0.137-0.012,0.284-0.012,0.421c0,1.971,0.957,2.301,1.629,2.301
			c0.558,0,1.162-0.251,1.583-1.059l0.205,0.114c-0.49,0.911-1.059,1.355-2.004,1.355c-1.424,0-2.403-1.071-2.403-2.654
			c0-1.401,0.729-2.859,2.403-2.859c1.412,0,2.073,1.207,2.05,2.381H18.689z M21.207,20.647v-0.16c0-1.412-0.649-1.72-1.139-1.72
			c-0.307,0-1.23,0.125-1.378,1.879H21.207z"/>
		<path fill="#080808" d="M25.942,20.168c0-0.479,0.011-1.401-1.253-1.401c-0.512,0-0.661,0.193-0.661,0.353
			c0,0.057,0.011,0.125,0.023,0.182c0.011,0.079,0.034,0.159,0.034,0.239c0,0.33-0.228,0.501-0.513,0.501
			c-0.307,0-0.49-0.239-0.49-0.547c0-0.49,0.501-0.98,1.572-0.98c2.107,0,2.153,1.264,2.153,1.652v2.973
			c0,0.205,0.034,0.444,0.251,0.444c0.182,0,0.342-0.193,0.421-0.444l0.251,0.102c-0.102,0.296-0.353,0.786-0.98,0.786
			c-0.638,0-0.809-0.569-0.809-0.991c-0.49,0.592-1.093,0.991-1.902,0.991c-0.831,0-1.207-0.558-1.207-1.127
			c0-1.412,1.72-1.879,3.109-2.141V20.168z M25.942,21.011c-1.731,0.331-2.119,1.014-2.119,1.709c0,0.501,0.239,0.866,0.706,0.866
			c0.524,0,1.037-0.444,1.412-0.877V21.011z"/>
		<path fill="#080808" d="M28.27,23.904v-0.251h0.444c0.251,0,0.41-0.034,0.41-0.273v-4.043c0-0.217-0.273-0.24-0.718-0.24H28.27
			v-0.25c0.182-0.012,0.729-0.057,1.72-0.433v1.196c0.228-0.513,0.626-1.094,1.298-1.094c0.501,0,0.911,0.251,0.911,0.684
			c0,0.273-0.16,0.581-0.478,0.581c-0.319,0-0.478-0.273-0.49-0.467c-0.011-0.114,0-0.353-0.296-0.353
			c-0.444,0-0.945,0.923-0.945,1.663v2.756c0,0.239,0.16,0.273,0.41,0.273h0.444v0.251H28.27z"/>
		<path fill="#080808" d="M37.079,22.412c-0.182,0.626-0.752,1.617-2.13,1.617c-1.367,0-2.358-1.013-2.358-2.688
			c0-1.447,0.877-2.825,2.631-2.825c0.945,0,1.583,0.399,1.583,0.98c0,0.376-0.262,0.592-0.547,0.592
			c-0.205,0-0.524-0.148-0.524-0.501c0-0.159,0.057-0.33,0.057-0.421c0-0.182-0.194-0.399-0.626-0.399
			c-1.173,0-1.583,1.412-1.583,2.574c0,1.401,0.661,2.312,1.674,2.312c0.957,0,1.435-0.763,1.595-1.298L37.079,22.412z"/>
		<path fill="#080808" d="M37.485,23.904v-0.251h0.444c0.251,0,0.41-0.034,0.41-0.273v-7.438c0-0.216-0.273-0.239-0.718-0.239
			h-0.137v-0.251c0.661-0.079,1.105-0.205,1.72-0.433v4.077c0.535-0.376,1.036-0.581,1.595-0.581c1.606,0,1.595,1.697,1.595,1.97
			v2.893c0,0.239,0.16,0.273,0.41,0.273h0.444v0.251h-2.574v-0.251h0.444c0.25,0,0.41-0.034,0.41-0.273v-2.996
			c0-1.093-0.535-1.481-1.162-1.481c-0.433,0-0.888,0.273-1.162,0.581v3.895c0,0.239,0.16,0.273,0.41,0.273h0.444v0.251H37.485z"/>
		<path fill="#080808" d="M53.615,15.931l0.16,2.175H53.41l-0.023-0.273c-0.068-0.843-1.036-1.743-2.437-1.743
			c-2.016,0-2.756,2.084-2.756,3.93c0,2.517,1.515,3.622,3.075,3.622c1.082,0,1.971-0.638,2.631-2.005l0.285,0.148
			c-0.786,1.709-1.982,2.278-3.28,2.278c-2.073,0-3.952-1.424-3.952-4.055c0-2.175,1.367-4.237,3.998-4.237
			c0.991,0,1.686,0.171,2.312,0.558l-0.012-0.398H53.615z"/>
		<path fill="#080808" d="M56.118,20.897c-0.012,0.137-0.012,0.284-0.012,0.421c0,1.971,0.957,2.301,1.629,2.301
			c0.558,0,1.162-0.251,1.583-1.059l0.205,0.114c-0.49,0.911-1.059,1.355-2.004,1.355c-1.424,0-2.403-1.071-2.403-2.654
			c0-1.401,0.729-2.859,2.403-2.859c1.412,0,2.073,1.207,2.05,2.381H56.118z M58.635,20.647v-0.16c0-1.412-0.649-1.72-1.139-1.72
			c-0.307,0-1.23,0.125-1.378,1.879H58.635z"/>
		<path fill="#080808" d="M60.058,23.904v-0.251h0.444c0.251,0,0.41-0.034,0.41-0.273v-4.043c0-0.217-0.273-0.24-0.718-0.24h-0.137
			v-0.25c0.661-0.08,1.105-0.205,1.72-0.433v0.683c0.535-0.376,1.036-0.581,1.595-0.581c1.606,0,1.595,1.697,1.595,1.97v2.893
			c0,0.239,0.16,0.273,0.41,0.273h0.444v0.251h-2.574v-0.251h0.444c0.25,0,0.41-0.034,0.41-0.273v-2.996
			c0-1.093-0.535-1.481-1.162-1.481c-0.433,0-0.888,0.273-1.162,0.581v3.895c0,0.239,0.16,0.273,0.41,0.273h0.444v0.251H60.058z"/>
		<path fill="#080808" d="M65.855,18.926v-0.284c0.547-0.034,1.447-0.296,1.447-1.697v-0.125h0.273v1.823
			c0.797,0.011,1.014-0.034,1.8-0.171v0.455h-1.8v3.656c0,0.854,0.524,1.036,0.854,1.036c0.512,0,0.945-0.524,1.048-1.059
			l0.251,0.102c-0.364,1.173-1.025,1.367-1.549,1.367c-0.957,0-1.469-0.683-1.469-1.651v-3.451H65.855z"/>
		<path fill="#080808" d="M71.329,20.897c-0.012,0.137-0.012,0.284-0.012,0.421c0,1.971,0.957,2.301,1.629,2.301
			c0.558,0,1.162-0.251,1.583-1.059l0.205,0.114c-0.49,0.911-1.059,1.355-2.005,1.355c-1.424,0-2.403-1.071-2.403-2.654
			c0-1.401,0.729-2.859,2.403-2.859c1.412,0,2.073,1.207,2.05,2.381H71.329z M73.847,20.647v-0.16c0-1.412-0.649-1.72-1.139-1.72
			c-0.307,0-1.23,0.125-1.378,1.879H73.847z"/>
		<path fill="#080808" d="M75.27,23.904v-0.251h0.444c0.251,0,0.41-0.034,0.41-0.273v-4.043c0-0.217-0.273-0.24-0.718-0.24H75.27
			v-0.25c0.182-0.012,0.729-0.057,1.72-0.433v1.196c0.228-0.513,0.626-1.094,1.298-1.094c0.501,0,0.911,0.251,0.911,0.684
			c0,0.273-0.16,0.581-0.479,0.581c-0.319,0-0.478-0.273-0.49-0.467c-0.011-0.114,0-0.353-0.296-0.353
			c-0.444,0-0.945,0.923-0.945,1.663v2.756c0,0.239,0.159,0.273,0.41,0.273h0.444v0.251H75.27z"/>
		<path fill="#080808" d="M86.411,18.892h-1.093l-1.298,4.761c-0.364,1.355-1.264,2.802-2.437,2.802
			c-0.547,0-0.729-0.365-0.729-0.604c0-0.285,0.205-0.478,0.478-0.478c0.342,0,0.444,0.273,0.478,0.376
			c0.034,0.114,0.034,0.319,0.239,0.319c0.478,0,0.82-1.355,1.025-2.107l1.378-5.068H83.37l0.08-0.25h1.071l0.194-0.706
			c0.376-1.355,1.264-2.802,2.438-2.802c0.547,0,0.729,0.364,0.729,0.603c0,0.273-0.205,0.478-0.478,0.478
			c-0.342,0-0.433-0.25-0.467-0.376c-0.057-0.205-0.08-0.319-0.25-0.319c-0.479,0-0.82,1.355-1.025,2.107l-0.274,1.014h1.105
			L86.411,18.892z"/>
		<path fill="#080808" d="M91.22,20.817c0,1.743-1.173,3.212-2.882,3.212c-1.31,0-1.857-1.082-1.857-2.187
			c0-1.765,1.219-3.326,2.904-3.326C90.708,18.517,91.22,19.61,91.22,20.817z M90.309,20.134c0-1.082-0.456-1.367-0.843-1.367
			c-1.071,0-2.073,1.72-2.073,3.645c0,1.23,0.638,1.367,0.877,1.367C89.159,23.779,90.309,22.355,90.309,20.134z"/>
		<path fill="#080808" d="M92.026,23.904l1.241-4.351c0.034-0.114,0.069-0.216,0.069-0.319c0-0.126-0.046-0.182-0.16-0.182
			c-0.353,0-0.911,0.695-1.093,0.991l-0.205-0.137c0.376-0.592,1.105-1.39,1.788-1.39c0.364,0,0.535,0.251,0.535,0.604
			c0,0.148-0.023,0.285-0.068,0.433l-0.387,1.367h0.045c0.888-1.538,1.504-2.403,2.13-2.403c0.239,0,0.512,0.148,0.512,0.467
			c0,0.262-0.137,0.524-0.456,0.524c-0.262,0-0.444-0.182-0.683-0.182c-0.558,0-1.936,2.927-2.028,3.257l-0.376,1.321H92.026z"/>
	</g>
	<g>
		<path fill="#06276A" d="M1.43,41.305l0.021,0.279c0.129,1.74,2.514,3.308,4.512,3.308c2.32,0,3.265-1.762,3.265-3.136
			c0-1.117-0.645-1.784-1.482-2.299l-3.846-2.32c-1.719-1.031-2.943-1.611-2.943-3.308c0-1.547,0.859-3.974,4.511-3.974
			c0.881,0,2.17,0.129,3.867,0.924l-0.022-0.623h0.687l0.129,3.802H9.443l-0.022-0.451c-0.086-1.762-2.084-3.051-4.125-3.051
			c-1.59,0-2.664,0.881-2.664,2.17c0,0.666,0.322,1.568,1.268,2.148l4.447,2.664c0.902,0.537,2.492,1.396,2.492,3.566
			c0,1.869-1.139,4.49-4.834,4.49c-1.138,0-2.664-0.129-4.34-1.01l0.043,0.709H1.022l-0.279-3.888H1.43z"/>
		<path fill="#06276A" d="M14.534,39.522c-0.022,0.258-0.022,0.537-0.022,0.795c0,3.717,1.805,4.34,3.072,4.34
			c1.053,0,2.192-0.473,2.986-1.998l0.387,0.215c-0.924,1.719-1.998,2.557-3.781,2.557c-2.685,0-4.533-2.02-4.533-5.006
			c0-2.642,1.375-5.392,4.533-5.392c2.664,0,3.91,2.277,3.867,4.49H14.534z M19.281,39.049v-0.301c0-2.664-1.225-3.244-2.148-3.244
			c-0.58,0-2.32,0.236-2.599,3.544H19.281z"/>
		<path fill="#06276A" d="M21.816,45.193v-0.473h0.838c0.473,0,0.773-0.065,0.773-0.516v-7.627c0-0.408-0.516-0.451-1.353-0.451
			h-0.258v-0.473c1.246-0.15,2.084-0.387,3.244-0.816v1.289c1.01-0.709,1.955-1.096,3.008-1.096c3.029,0,3.008,3.201,3.008,3.717
			v5.457c0,0.451,0.301,0.516,0.773,0.516h0.838v0.473h-4.855v-0.473h0.838c0.473,0,0.774-0.065,0.774-0.516v-5.65
			c0-2.063-1.01-2.793-2.192-2.793c-0.816,0-1.676,0.516-2.191,1.095v7.348c0,0.451,0.301,0.516,0.774,0.516h0.838v0.473H21.816z"/>
		<path fill="#06276A" d="M33.833,45.193v-0.473h0.838c0.473,0,0.773-0.065,0.773-0.516v-7.627c0-0.408-0.516-0.451-1.353-0.451
			h-0.258v-0.473c0.344-0.022,1.375-0.107,3.244-0.816v9.367c0,0.451,0.301,0.516,0.774,0.516h0.838v0.473H33.833z M36.239,30.155
			c0.623,0,1.074,0.451,1.074,1.074c0,0.623-0.451,1.074-1.074,1.074c-0.623,0-1.074-0.451-1.074-1.074
			C35.165,30.606,35.616,30.155,36.239,30.155z"/>
		<path fill="#06276A" d="M44.22,35.031c3.373,0,4.812,2.642,4.812,5.199c0,2.556-1.439,5.199-4.812,5.199
			c-3.373,0-4.812-2.642-4.812-5.199C39.408,37.674,40.847,35.031,44.22,35.031z M44.22,44.957c1.053,0,2.943-0.601,2.943-4.726
			s-1.89-4.726-2.943-4.726c-1.053,0-2.943,0.602-2.943,4.726S43.168,44.957,44.22,44.957z"/>
		<path fill="#06276A" d="M49.845,45.193v-0.473h0.838c0.473,0,0.773-0.065,0.773-0.516v-7.627c0-0.408-0.516-0.451-1.353-0.451
			h-0.258v-0.473c0.344-0.022,1.375-0.107,3.244-0.816v2.256c0.43-0.967,1.182-2.063,2.449-2.063c0.945,0,1.719,0.473,1.719,1.289
			c0,0.516-0.301,1.095-0.902,1.095c-0.602,0-0.902-0.516-0.924-0.881c-0.021-0.215,0-0.666-0.559-0.666
			c-0.838,0-1.783,1.74-1.783,3.137v5.199c0,0.451,0.301,0.516,0.774,0.516H54.7v0.473H49.845z"/>
		<path fill="#06276A" d="M75.561,37.051v-5.328c0-0.945-0.537-0.966-0.816-0.966H73.52v-0.602h6.058v0.602h-1.225
			c-0.279,0-0.816,0.021-0.816,0.966v11.902c0,0.945,0.537,0.967,0.816,0.967h1.225v0.602H73.52v-0.602h1.225
			c0.279,0,0.816-0.021,0.816-0.967v-5.972h-7.584v5.972c0,0.945,0.537,0.967,0.816,0.967h1.225v0.602H63.96v-0.602h1.225
			c0.279,0,0.816-0.021,0.816-0.967V31.723c0-0.945-0.537-0.966-0.816-0.966H63.96v-0.602h6.058v0.602h-1.225
			c-0.279,0-0.816,0.021-0.816,0.966v5.328H75.561z"/>
		<path fill="#06276A" d="M82.634,39.522c-0.022,0.258-0.022,0.537-0.022,0.795c0,3.717,1.805,4.34,3.072,4.34
			c1.053,0,2.192-0.473,2.986-1.998l0.387,0.215c-0.924,1.719-1.998,2.557-3.781,2.557c-2.685,0-4.533-2.02-4.533-5.006
			c0-2.642,1.375-5.392,4.533-5.392c2.664,0,3.91,2.277,3.867,4.49H82.634z M87.382,39.049v-0.301c0-2.664-1.225-3.244-2.148-3.244
			c-0.58,0-2.32,0.236-2.599,3.544H87.382z"/>
		<path fill="#06276A" d="M96.177,38.147c0-0.902,0.021-2.642-2.363-2.642c-0.967,0-1.246,0.365-1.246,0.666
			c0,0.107,0.021,0.236,0.043,0.344c0.022,0.15,0.065,0.3,0.065,0.451c0,0.623-0.43,0.945-0.967,0.945
			c-0.58,0-0.924-0.451-0.924-1.031c0-0.924,0.945-1.848,2.965-1.848c3.974,0,4.06,2.385,4.06,3.115v5.607
			c0,0.386,0.064,0.838,0.473,0.838c0.344,0,0.645-0.365,0.795-0.838l0.473,0.193c-0.193,0.559-0.666,1.482-1.847,1.482
			c-1.203,0-1.525-1.074-1.525-1.869c-0.924,1.117-2.062,1.869-3.588,1.869c-1.568,0-2.277-1.053-2.277-2.127
			c0-2.664,3.244-3.545,5.865-4.039V38.147z M96.177,39.736c-3.265,0.623-3.996,1.912-3.996,3.222c0,0.945,0.451,1.633,1.332,1.633
			c0.988,0,1.955-0.838,2.664-1.654V39.736z"/>
		<path fill="#06276A" d="M100.445,45.193v-0.473h0.838c0.473,0,0.773-0.065,0.773-0.516V30.176c0-0.408-0.516-0.451-1.353-0.451
			h-0.258v-0.473c0.343-0.021,1.374-0.107,3.244-0.816v15.769c0,0.451,0.301,0.516,0.773,0.516h0.838v0.473H100.445z"/>
		<path fill="#06276A" d="M105.519,35.805v-0.537c1.031-0.064,2.729-0.559,2.729-3.201v-0.236h0.516v3.437
			c1.504,0.022,1.912-0.064,3.395-0.322v0.859h-3.395v6.896c0,1.611,0.988,1.955,1.611,1.955c0.967,0,1.783-0.988,1.976-1.998
			l0.473,0.193c-0.688,2.213-1.934,2.578-2.922,2.578c-1.804,0-2.771-1.289-2.771-3.115v-6.509H105.519z"/>
		<path fill="#06276A" d="M113.582,45.193v-0.473h0.838c0.473,0,0.773-0.065,0.773-0.516V30.176c0-0.408-0.516-0.451-1.353-0.451
			h-0.258v-0.473c1.246-0.15,2.084-0.387,3.244-0.816v7.691c1.01-0.709,1.955-1.096,3.008-1.096c3.029,0,3.008,3.201,3.008,3.717
			v5.457c0,0.451,0.301,0.516,0.774,0.516h0.838v0.473h-4.855v-0.473h0.838c0.473,0,0.773-0.065,0.773-0.516v-5.65
			c0-2.063-1.01-2.793-2.191-2.793c-0.816,0-1.676,0.516-2.191,1.095v7.348c0,0.451,0.301,0.516,0.773,0.516h0.838v0.473H113.582z"
			/>
	</g>
</g>
</svg>
