<?xml version="1.0" encoding="utf-8"?>
<!-- Generator: Adobe Illustrator 17.0.2, SVG Export Plug-In . SVG Version: 6.00 Build 0)  -->
<!DOCTYPE svg PUBLIC "-//W3C//DTD SVG 1.1//EN" "http://www.w3.org/Graphics/SVG/1.1/DTD/svg11.dtd">
<svg version="1.1" id="Layer_1" xmlns="http://www.w3.org/2000/svg" xmlns:xlink="http://www.w3.org/1999/xlink" x="0px" y="0px"
	 width="380px" height="102px" viewBox="0 0 380 102" enable-background="new 0 0 380 102" xml:space="preserve">
<g>
	<path fill="none" d="M287.736,40.028l16.257-1.307l-5.888-8.161C293.834,33.157,290.22,36.401,287.736,40.028z"/>
	<path fill="none" d="M326.596,24.669l-1.984,11.936l13.324-6.586C335.244,27.421,331.368,25.532,326.596,24.669z"/>
	<path fill="none" d="M347.119,42.101l6.852,0.961c1.82-6.948,0.227-13.287-4.016-18.167l-6.148,3.891
		C346.821,32.446,348.076,37.052,347.119,42.101z"/>
	<path fill="none" d="M341.403,28.305c-3.281-3.291-8.203-5.615-14.333-6.491l-0.286,1.72c5.307,0.873,9.595,2.935,12.522,5.807
		L341.403,28.305z"/>
	<path fill="none" d="M349.445,24.33c-4.589-4.916-11.966-8.242-21.29-9.045l-0.899,5.41c6.667,0.873,12.004,3.37,15.51,6.936
		L349.445,24.33z"/>
	<path fill="none" d="M343.525,41.597l2.185,0.306c0.795-4.663-0.389-8.917-3.158-12.323l-1.93,1.221
		C343.013,33.817,344.083,37.53,343.525,41.597z"/>
	<path fill="none" d="M304.465,75.051c9.77-0.322,19.612-3.216,27.969-7.806l-3.956-3.569c-6.236,3.322-13.427,5.503-20.648,6.027
		L304.465,75.051z"/>
	<path fill="none" d="M308.527,68.596c6.695-0.554,13.344-2.588,19.143-5.65l-1.24-1.119c-5.123,2.669-10.946,4.477-16.833,5.068
		L308.527,68.596z"/>
	<path fill="none" d="M338.618,50.15l-16.249,1.307l5.886,8.16C332.524,57.02,336.135,53.776,338.618,50.15z"/>
	<path fill="none" d="M339.361,31.6l-12.175,7.705l14.903,2.09C342.501,37.717,341.507,34.357,339.361,31.6z"/>
	<path fill="none" d="M328.866,60.462l0.932,1.292c5.389-3.202,9.888-7.311,12.769-11.921l-2.382,0.192
		C337.539,54.039,333.576,57.624,328.866,60.462z"/>
	<path fill="none" d="M330.405,62.596l2.973,4.121c7.99-4.573,14.528-10.706,18.197-17.608l-7.471,0.601
		C341.078,54.706,336.232,59.159,330.405,62.596z"/>
	<path fill="none" d="M297.496,29.716l-0.933-1.293c-5.387,3.201-9.887,7.312-12.768,11.922l2.383-0.192
		C288.824,36.14,292.788,32.553,297.496,29.716z"/>
	<path fill="none" d="M325.618,61.095l-7.891-7.12l-7.424,11.799C315.658,65.166,320.94,63.508,325.618,61.095z"/>
	<path fill="none" d="M299.93,28.352c5.122-2.67,10.943-4.477,16.827-5.069l1.07-1.701c-6.692,0.554-13.341,2.588-19.138,5.65
		L299.93,28.352z"/>
	<path fill="none" d="M308.628,36.202l7.423-11.797c-5.352,0.608-10.633,2.266-15.311,4.678L308.628,36.202z"/>
	<path fill="none" d="M295.956,27.581l-2.971-4.119c-7.988,4.572-14.527,10.707-18.196,17.608l7.463-0.6
		C285.277,35.471,290.125,31.018,295.956,27.581z"/>
	<path fill="none" d="M297.88,26.502c6.236-3.321,13.425-5.502,20.643-6.026l3.365-5.349c-9.766,0.323-19.605,3.216-27.962,7.806
		L297.88,26.502z"/>
	<path fill="#97BF1E" d="M292.984,23.462l-0.606-0.84c-8.431,4.8-15.315,11.28-19.107,18.57l1.517-0.122
		C278.458,34.169,284.996,28.034,292.984,23.462z"/>
	<path fill="#97BF1E" d="M321.889,15.127l0.679-1.079c-10.281,0.274-20.662,3.309-29.447,8.157l0.806,0.728
		C302.283,18.343,312.122,15.45,321.889,15.127z"/>
	<path fill="#97BF1E" d="M353.971,43.062l1.391,0.195c2.007-7.336,0.345-14.029-4.154-19.155l-1.254,0.793
		C354.198,29.775,355.792,36.114,353.971,43.062z"/>
	<path fill="#97BF1E" d="M349.445,24.33l1.362-0.673c-4.807-5.19-12.603-8.683-22.47-9.463l-0.181,1.091
		C337.48,16.087,344.856,19.414,349.445,24.33z"/>
	<path fill="#97BF1E" d="M333.378,66.716l0.606,0.84c8.433-4.801,15.316-11.279,19.108-18.57l-1.517,0.122
		C347.905,56.01,341.368,62.144,333.378,66.716z"/>
	<path fill="#97BF1E" d="M304.465,75.051l-0.679,1.079c10.285-0.274,20.669-3.309,29.455-8.157l-0.807-0.728
		C324.077,71.835,314.235,74.729,304.465,75.051z"/>
	<path fill="#97BF1E" d="M342.089,41.395l1.436,0.201c0.558-4.067-0.513-7.78-2.902-10.795l-1.262,0.798
		C341.507,34.357,342.501,37.717,342.089,41.395z"/>
	<path fill="#97BF1E" d="M339.307,29.341c-2.927-2.872-7.216-4.934-12.522-5.807l-0.189,1.135c4.772,0.863,8.648,2.752,11.34,5.349
		L339.307,29.341z"/>
	<path fill="#97BF1E" d="M298.105,30.56l-0.608-0.844c-4.708,2.837-8.672,6.423-11.318,10.437l1.558-0.125
		C290.22,36.401,293.834,33.157,298.105,30.56z"/>
	<path fill="#97BF1E" d="M309.597,66.896c5.887-0.591,11.71-2.399,16.833-5.068l-0.812-0.732c-4.678,2.412-9.96,4.071-15.315,4.679
		L309.597,66.896z"/>
	<path fill="#97BF1E" d="M300.74,29.083c4.678-2.412,9.959-4.07,15.311-4.678l0.706-1.122c-5.884,0.592-11.705,2.399-16.827,5.069
		L300.74,29.083z"/>
	<path fill="#97BF1E" d="M328.256,59.616l0.61,0.846c4.71-2.837,8.673-6.423,11.319-10.438l-1.566,0.126
		C336.135,53.776,332.524,57.02,328.256,59.616z"/>
	<path fill="none" d="M297.496,29.716l-0.933-1.293c-5.387,3.201-9.887,7.312-12.768,11.922l2.383-0.192l1.558-0.125l16.257-1.307
		l-5.888-8.161L297.496,29.716z"/>
	<path fill="none" d="M326.182,9.862l-16.463,26.17c2.105-0.755,4.353-1.205,6.59-1.263L326.182,9.862z"/>
	<path fill="none" d="M324.827,45.382c1.922-4.848-1.736-8.906-8.172-9.068c-6.428-0.162-13.198,3.634-15.12,8.482
		c-1.919,4.841,1.738,8.9,8.166,9.061C316.138,54.02,322.908,50.224,324.827,45.382z"/>
	<path fill="none" d="M327.129,44.718l40.471,1.018l-40.579-5.691C327.579,41.439,327.644,43.03,327.129,44.718z"/>
	<path fill="none" d="M299.233,45.46l-40.471-1.018l40.578,5.691C298.784,48.74,298.718,47.149,299.233,45.46z"/>
	<path fill="none" d="M325.618,61.095l-7.891-7.12l-7.424,11.799l-0.706,1.122l-1.07,1.7c6.695-0.554,13.344-2.588,19.143-5.65
		l-1.24-1.119L325.618,61.095z"/>
	<path fill="none" d="M328.256,59.616l0.61,0.846l0.932,1.292c5.389-3.202,9.888-7.311,12.769-11.921l-20.198,1.624L328.256,59.616z
		"/>
	<path fill="none" d="M299.93,28.352l0.81,0.731l7.888,7.119l7.423-11.797l0.706-1.122l1.07-1.701
		c-6.692,0.554-13.341,2.588-19.138,5.65L299.93,28.352z"/>
	<path fill="none" d="M300.18,80.316l16.464-26.172c-2.104,0.754-4.353,1.205-6.591,1.264L300.18,80.316z"/>
	<path fill="none" d="M340.623,30.801l-1.262,0.798l-12.175,7.705l14.903,2.09l1.436,0.201l2.185,0.306
		c0.795-4.663-0.389-8.917-3.158-12.323L340.623,30.801z"/>
	<path fill="none" d="M339.307,29.341l2.096-1.036c-3.281-3.291-8.203-5.615-14.333-6.491l-0.286,1.72l-0.189,1.135l-1.984,11.936
		l13.324-6.586L339.307,29.341z"/>
	<path fill="#06276A" d="M347.119,42.101c0.957-5.049-0.298-9.655-3.312-13.315l12.048-7.625l-13.088,6.47
		c-3.506-3.566-8.842-6.063-15.51-6.936l3.184-19.159l-11.918,18.94c-7.218,0.524-14.407,2.705-20.643,6.026l-7.748-6.993
		l5.823,8.072c-5.831,3.438-10.678,7.891-13.705,12.889l-36.394,2.927l10.844,1.521l43.036,6.036
		c-0.152-0.264-0.284-0.538-0.397-0.819l-40.578-5.691l40.471,1.018c0.072-0.237,0.155-0.475,0.251-0.715
		c0.095-0.24,0.201-0.478,0.316-0.714c0.821-1.68,2.134-3.237,3.773-4.576c0.331-0.27,0.675-0.531,1.032-0.783
		c1.158-0.818,2.441-1.534,3.805-2.123c0.429-0.185,0.867-0.358,1.31-0.517l16.463-26.17l-9.873,24.908
		c0.32-0.008,0.639-0.009,0.959-0.001c0.322,0.008,0.638,0.025,0.947,0.049c2.147,0.169,3.998,0.722,5.469,1.567
		c0.307,0.176,0.598,0.365,0.871,0.566c0.878,0.646,1.577,1.414,2.071,2.276c0.151,0.264,0.284,0.537,0.396,0.818l40.579,5.691
		l-40.471-1.018c-0.072,0.237-0.155,0.475-0.251,0.715c-0.095,0.24-0.201,0.478-0.316,0.714c-0.821,1.681-2.134,3.237-3.774,4.576
		c-0.331,0.27-0.675,0.531-1.03,0.782c-1.161,0.82-2.449,1.538-3.816,2.128c-0.425,0.183-0.858,0.354-1.298,0.511L300.18,80.316
		l9.873-24.908c-0.323,0.008-0.645,0.009-0.967,0.001c-0.319-0.008-0.632-0.024-0.939-0.049c-2.147-0.168-3.998-0.721-5.469-1.566
		c-0.31-0.178-0.603-0.369-0.878-0.572l-5.887,35.419l7.873-12.512l0.679-1.079l3.365-5.348c7.221-0.524,14.412-2.705,20.648-6.027
		l3.956,3.569l0.807,0.728l2.989,2.697l-2.246-3.113l-0.606-0.84l-2.973-4.121c5.827-3.437,10.673-7.89,13.698-12.887l36.394-2.927
		L347.119,42.101z M287.736,40.028l-1.558,0.125l-2.383,0.192c2.881-4.611,7.381-8.721,12.768-11.922l0.933,1.293l0.608,0.844
		l5.888,8.161L287.736,40.028z M316.757,23.283l-0.706,1.122l-7.423,11.797l-7.888-7.119l-0.81-0.731l-1.241-1.12
		c5.797-3.062,12.446-5.096,19.138-5.65L316.757,23.283z M324.612,36.605l1.984-11.936l0.189-1.135l0.286-1.72
		c6.129,0.876,11.052,3.2,14.333,6.491l-2.096,1.036l-1.371,0.678L324.612,36.605z M345.71,41.903l-2.185-0.306l-1.436-0.201
		l-14.903-2.09l12.175-7.705l1.262-0.798l1.93-1.221C345.321,32.986,346.505,37.24,345.71,41.903z M308.527,68.596l1.07-1.7
		l0.706-1.122l7.424-11.799l7.891,7.12l0.812,0.732l1.24,1.119C321.871,66.009,315.222,68.043,308.527,68.596z M329.798,61.754
		l-0.932-1.292l-0.61-0.846l-5.886-8.16l20.198-1.624C339.686,54.442,335.187,58.552,329.798,61.754z"/>
	<path fill="#97BF1E" d="M324.827,45.382c1.922-4.848-1.736-8.906-8.172-9.068c-6.428-0.162-13.198,3.634-15.12,8.482
		c-1.919,4.841,1.738,8.9,8.166,9.061C316.138,54.02,322.908,50.224,324.827,45.382z M308.288,44.966
		c0.806-2.034,3.65-3.634,6.352-3.566c2.71,0.068,4.242,1.778,3.435,3.812c-0.806,2.034-3.648,3.628-6.357,3.559
		C309.016,48.704,307.481,47.001,308.288,44.966z"/>
	<g>
		<path fill="#080808" d="M15.569,4.256l0.359,4.892h-0.819l-0.051-0.615c-0.154-1.895-2.33-3.918-5.48-3.918
			c-4.533,0-6.197,4.687-6.197,8.835c0,5.659,3.406,8.144,6.914,8.144c2.433,0,4.431-1.434,5.916-4.508l0.64,0.333
			c-1.767,3.842-4.456,5.121-7.375,5.121c-4.661,0-8.886-3.201-8.886-9.117c0-4.891,3.073-9.527,8.989-9.527
			c2.228,0,3.79,0.384,5.199,1.255l-0.026-0.897H15.569z"/>
		<path fill="#080808" d="M24.678,10.07c4.021,0,5.736,3.15,5.736,6.198s-1.716,6.197-5.736,6.197s-5.736-3.149-5.736-6.197
			S20.658,10.07,24.678,10.07z M24.678,21.902c1.255,0,3.508-0.717,3.508-5.634s-2.253-5.634-3.508-5.634
			c-1.254,0-3.508,0.717-3.508,5.634S23.424,21.902,24.678,21.902z"/>
		<path fill="#080808" d="M31.566,22.184V21.62h0.999c0.564,0,0.922-0.077,0.922-0.615v-9.091c0-0.487-0.614-0.539-1.614-0.539
			h-0.307v-0.563c0.41-0.026,1.639-0.129,3.867-0.974v1.485c1.178-0.845,2.151-1.255,3.201-1.255c1.255,0,2.33,0.461,2.945,1.434
			c1.409-1.127,2.612-1.434,3.611-1.434c1.844,0,3.713,1.332,3.713,3.969v6.966c0,0.538,0.359,0.615,0.922,0.615h0.999v0.564h-5.506
			V21.62h0.717c0.564,0,0.922-0.077,0.922-0.615v-6.889c0-2.381-1.306-3.252-2.587-3.252c-0.64,0-1.434,0.205-2.51,1.229
			c0.23,0.64,0.307,1.178,0.307,1.895v7.017c0,0.538,0.359,0.615,0.922,0.615h0.717v0.564h-5.25V21.62H39.3
			c0.563,0,0.922-0.077,0.922-0.615v-7.017c0-1.613-0.615-3.124-2.279-3.124c-0.948,0-1.869,0.538-2.51,1.229v8.912
			c0,0.538,0.359,0.615,0.922,0.615h0.717v0.564H31.566z"/>
		<path fill="#080808" d="M52.372,22.184V21.62h0.999c0.564,0,0.922-0.077,0.922-0.615v-9.091c0-0.487-0.614-0.539-1.614-0.539
			h-0.307v-0.563c0.41-0.026,1.639-0.129,3.867-0.974v1.485c1.178-0.845,2.151-1.255,3.201-1.255c1.255,0,2.33,0.461,2.945,1.434
			c1.409-1.127,2.612-1.434,3.611-1.434c1.844,0,3.713,1.332,3.713,3.969v6.966c0,0.538,0.359,0.615,0.922,0.615h0.999v0.564h-5.506
			V21.62h0.717c0.564,0,0.922-0.077,0.922-0.615v-6.889c0-2.381-1.306-3.252-2.587-3.252c-0.64,0-1.434,0.205-2.51,1.229
			c0.23,0.64,0.307,1.178,0.307,1.895v7.017c0,0.538,0.359,0.615,0.922,0.615h0.717v0.564h-5.25V21.62h0.743
			c0.563,0,0.922-0.077,0.922-0.615v-7.017c0-1.613-0.614-3.124-2.279-3.124c-0.948,0-1.87,0.538-2.51,1.229v8.912
			c0,0.538,0.359,0.615,0.922,0.615h0.717v0.564H52.372z"/>
		<path fill="#080808" d="M80.812,22.184v-1.613c-1.921,1.716-3.099,1.894-4.174,1.894c-0.743,0-2.92-0.205-2.92-3.764v-6.786
			c0-0.487-0.615-0.539-1.613-0.539h-0.307v-0.563c0.41-0.026,1.639-0.129,3.867-0.974v8.861c0,1.716,0.512,2.791,2.024,2.791
			c1.127,0,2.459-0.897,3.124-1.639v-7.939c0-0.487-0.615-0.539-1.614-0.539h-0.307v-0.563c0.41-0.026,1.639-0.129,3.867-0.974
			v11.166c0,0.538,0.359,0.615,0.922,0.615h0.999v0.564H80.812z"/>
		<path fill="#080808" d="M86.322,22.184V21.62h0.999c0.564,0,0.922-0.077,0.922-0.615v-9.091c0-0.487-0.615-0.539-1.614-0.539
			h-0.307v-0.563c1.485-0.18,2.484-0.461,3.867-0.974v1.536c1.204-0.845,2.33-1.306,3.585-1.306c3.611,0,3.585,3.816,3.585,4.43
			v6.505c0,0.538,0.359,0.615,0.922,0.615h0.999v0.564h-5.788V21.62h0.999c0.563,0,0.922-0.077,0.922-0.615V14.27
			c0-2.458-1.204-3.329-2.612-3.329c-0.973,0-1.998,0.615-2.612,1.306v8.759c0,0.538,0.359,0.615,0.922,0.615h0.999v0.564H86.322z"
			/>
		<path fill="#080808" d="M100.8,22.184V21.62h0.999c0.564,0,0.922-0.077,0.922-0.615v-9.091c0-0.487-0.615-0.539-1.614-0.539H100.8
			v-0.563c0.41-0.026,1.639-0.129,3.867-0.974v11.166c0,0.538,0.359,0.615,0.922,0.615h0.999v0.564H100.8z M103.668,4.256
			c0.743,0,1.281,0.539,1.281,1.281c0,0.743-0.538,1.281-1.281,1.281c-0.742,0-1.28-0.538-1.28-1.281
			C102.388,4.795,102.926,4.256,103.668,4.256z"/>
		<path fill="#080808" d="M107.035,10.992v-0.639c1.229-0.077,3.252-0.666,3.252-3.817V6.254h0.615v4.098
			c1.793,0.025,2.279-0.077,4.046-0.384v1.024h-4.046v8.221c0,1.92,1.178,2.33,1.921,2.33c1.152,0,2.125-1.178,2.356-2.381
			l0.564,0.23c-0.82,2.638-2.305,3.073-3.483,3.073c-2.151,0-3.303-1.536-3.303-3.713v-7.76H107.035z"/>
		<path fill="#080808" d="M129.424,10.915h-0.384c-1.127,0-1.537,1.819-2.689,4.738l-3.406,8.604
			c-0.589,1.511-1.716,3.663-3.918,3.663c-1.229,0-2.074-0.769-2.074-1.691c0-0.615,0.359-1.203,1.101-1.203
			c0.973,0,1.153,0.768,1.178,0.947c0.077,0.41,0.025,1.024,0.64,1.024c0.717,0,1.69-0.973,2.458-2.945l0.64-1.665l-4.456-10.55
			c-0.154-0.385-0.461-0.923-1.383-0.923h-0.512v-0.563h5.276v0.563h-0.871c-0.948,0-0.615,0.794-0.564,0.923l3.458,8.22
			l1.075-2.971c1.357-3.79,1.511-4.865,1.511-5.378c0-0.256-0.051-0.794-0.794-0.794h-0.691v-0.563h4.405V10.915z"/>
		<path fill="#080808" d="M8.219,32.86c2.817,0,6.325,0.589,6.325,4.584c0,3.765-3.816,4.636-5.967,4.636v0.179
			c2.433,0.282,3.534,2.126,5.122,5.122c0.487,0.922,1.306,2.612,2.1,2.612c0.435,0,0.666-0.512,0.666-0.948v-0.307h0.691v0.359
			c0,0.896-0.64,2.048-2.049,2.048c-1.895,0-2.894-1.409-3.892-3.073c-0.359-0.564-0.64-1.178-0.948-1.768
			c-1.357-2.638-2.535-4.43-4.968-4.123v6.736c0,1.127,0.64,1.152,0.973,1.152h1.46v0.717H0.511v-0.717h1.46
			c0.333,0,0.973-0.025,0.973-1.152V34.729c0-1.127-0.64-1.152-0.973-1.152h-1.46V32.86H8.219z M5.3,41.464
			c0.615,0.077,1.255,0.077,1.869,0.077c1.588,0,4.917-0.332,4.917-4.123c0-2.638-2.048-3.841-4.456-3.841
			c-0.896,0-1.588,0.179-2.331,0.512V41.464z"/>
		<path fill="#080808" d="M20.863,44.025c-0.026,0.307-0.026,0.639-0.026,0.947c0,4.431,2.151,5.173,3.662,5.173
			c1.255,0,2.613-0.564,3.56-2.381l0.461,0.255c-1.101,2.049-2.382,3.048-4.507,3.048c-3.201,0-5.404-2.407-5.404-5.966
			c0-3.15,1.639-6.428,5.404-6.428c3.176,0,4.661,2.714,4.61,5.353H20.863z M26.522,43.462v-0.359c0-3.175-1.46-3.867-2.561-3.867
			c-0.691,0-2.766,0.281-3.098,4.226H26.522z"/>
		<path fill="#080808" d="M37.768,38.955l0.103,3.201h-0.64v-0.41c0-1.075-1.562-2.51-3.406-2.51c-1.459,0-1.895,1.075-1.895,1.869
			c0,1.255,1.562,1.793,2.971,2.459c1.511,0.716,3.56,1.793,3.56,3.994c0,1.384-1.101,3.508-4.047,3.508
			c-1.331,0-2.561-0.486-3.329-0.845v0.564h-0.64l-0.128-3.355h0.64c0.051,1.767,1.946,3.073,3.56,3.073
			c1.485,0,2.279-1.076,2.279-2.254c0-1.664-1.69-2.202-3.636-3.226c-1.69-0.897-2.663-1.716-2.663-3.201
			c0-1.869,1.434-3.15,3.713-3.15c0.691,0,1.844,0.129,2.919,0.743v-0.461H37.768z"/>
		<path fill="#080808" d="M42.383,44.025c-0.026,0.307-0.026,0.639-0.026,0.947c0,4.431,2.151,5.173,3.662,5.173
			c1.255,0,2.613-0.564,3.56-2.381l0.461,0.255c-1.101,2.049-2.382,3.048-4.507,3.048c-3.201,0-5.404-2.407-5.404-5.966
			c0-3.15,1.639-6.428,5.404-6.428c3.176,0,4.661,2.714,4.61,5.353H42.383z M48.043,43.462v-0.359c0-3.175-1.46-3.867-2.561-3.867
			c-0.691,0-2.766,0.281-3.098,4.226H48.043z"/>
		<path fill="#080808" d="M58.689,42.386c0-1.076,0.025-3.15-2.817-3.15c-1.152,0-1.485,0.435-1.485,0.794
			c0,0.128,0.025,0.281,0.051,0.41c0.025,0.179,0.077,0.358,0.077,0.538c0,0.742-0.512,1.126-1.153,1.126
			c-0.691,0-1.101-0.538-1.101-1.229c0-1.101,1.127-2.203,3.534-2.203c4.738,0,4.84,2.843,4.84,3.714v6.684
			c0,0.461,0.077,0.999,0.564,0.999c0.41,0,0.768-0.435,0.947-0.999l0.564,0.23c-0.23,0.666-0.794,1.767-2.203,1.767
			c-1.434,0-1.818-1.28-1.818-2.228c-1.101,1.332-2.458,2.228-4.277,2.228c-1.869,0-2.714-1.255-2.714-2.535
			c0-3.175,3.867-4.226,6.991-4.814V42.386z M58.689,44.281c-3.892,0.743-4.763,2.279-4.763,3.842c0,1.127,0.538,1.946,1.588,1.946
			c1.178,0,2.331-0.999,3.176-1.972V44.281z"/>
		<path fill="#080808" d="M63.924,50.786v-0.564h0.999c0.564,0,0.922-0.077,0.922-0.614v-9.091c0-0.487-0.615-0.539-1.614-0.539
			h-0.307v-0.563c0.41-0.026,1.639-0.129,3.867-0.974v2.689c0.512-1.153,1.409-2.459,2.919-2.459c1.127,0,2.049,0.564,2.049,1.537
			c0,0.614-0.359,1.306-1.076,1.306c-0.717,0-1.075-0.615-1.101-1.05c-0.025-0.255,0-0.794-0.666-0.794
			c-0.999,0-2.125,2.075-2.125,3.74v6.197c0,0.538,0.359,0.614,0.922,0.614h0.999v0.564H63.924z"/>
		<path fill="#080808" d="M83.731,47.431c-0.41,1.409-1.69,3.636-4.789,3.636c-3.073,0-5.302-2.278-5.302-6.043
			c0-3.253,1.972-6.351,5.916-6.351c2.125,0,3.56,0.897,3.56,2.203c0,0.845-0.589,1.332-1.229,1.332
			c-0.461,0-1.178-0.333-1.178-1.127c0-0.358,0.128-0.742,0.128-0.947c0-0.41-0.435-0.897-1.409-0.897
			c-2.638,0-3.56,3.175-3.56,5.788c0,3.149,1.485,5.198,3.765,5.198c2.151,0,3.227-1.716,3.585-2.919L83.731,47.431z"/>
		<path fill="#080808" d="M84.643,50.786v-0.564h0.999c0.564,0,0.922-0.077,0.922-0.614V32.884c0-0.486-0.615-0.538-1.614-0.538
			h-0.307v-0.564c1.485-0.179,2.484-0.461,3.867-0.973v9.168c1.204-0.845,2.33-1.306,3.585-1.306c3.611,0,3.585,3.816,3.585,4.43
			v6.505c0,0.538,0.359,0.614,0.922,0.614h0.999v0.564h-5.788v-0.564h0.999c0.563,0,0.922-0.077,0.922-0.614v-6.736
			c0-2.458-1.204-3.329-2.612-3.329c-0.973,0-1.998,0.615-2.612,1.306v8.759c0,0.538,0.359,0.614,0.922,0.614h0.999v0.564H84.643z"
			/>
		<path fill="#080808" d="M120.911,32.86l0.359,4.891h-0.82l-0.051-0.615c-0.154-1.895-2.33-3.918-5.48-3.918
			c-4.533,0-6.197,4.687-6.197,8.835c0,5.659,3.406,8.144,6.914,8.144c2.433,0,4.431-1.434,5.916-4.508l0.64,0.333
			c-1.767,3.842-4.456,5.121-7.375,5.121c-4.661,0-8.886-3.201-8.886-9.117c0-4.891,3.073-9.527,8.989-9.527
			c2.228,0,3.79,0.384,5.199,1.255l-0.026-0.896H120.911z"/>
		<path fill="#080808" d="M126.538,44.025c-0.026,0.307-0.026,0.639-0.026,0.947c0,4.431,2.151,5.173,3.662,5.173
			c1.255,0,2.612-0.564,3.56-2.381l0.461,0.255c-1.101,2.049-2.382,3.048-4.507,3.048c-3.201,0-5.404-2.407-5.404-5.966
			c0-3.15,1.639-6.428,5.404-6.428c3.176,0,4.661,2.714,4.61,5.353H126.538z M132.198,43.462v-0.359c0-3.175-1.46-3.867-2.561-3.867
			c-0.691,0-2.766,0.281-3.098,4.226H132.198z"/>
		<path fill="#080808" d="M135.399,50.786v-0.564h0.999c0.564,0,0.922-0.077,0.922-0.614v-9.091c0-0.487-0.615-0.539-1.614-0.539
			h-0.307v-0.563c1.485-0.18,2.484-0.461,3.867-0.974v1.536c1.204-0.845,2.33-1.306,3.585-1.306c3.611,0,3.585,3.816,3.585,4.43
			v6.505c0,0.538,0.359,0.614,0.922,0.614h0.999v0.564h-5.788v-0.564h0.999c0.563,0,0.922-0.077,0.922-0.614v-6.736
			c0-2.458-1.204-3.329-2.612-3.329c-0.973,0-1.998,0.615-2.612,1.306v8.759c0,0.538,0.359,0.614,0.922,0.614h0.999v0.564H135.399z"
			/>
		<path fill="#080808" d="M148.433,39.594v-0.639c1.229-0.077,3.253-0.666,3.253-3.817v-0.281h0.614v4.098
			c1.793,0.025,2.279-0.077,4.046-0.384v1.024H152.3v8.221c0,1.92,1.178,2.33,1.921,2.33c1.152,0,2.125-1.178,2.356-2.381
			l0.564,0.23c-0.82,2.638-2.305,3.072-3.483,3.072c-2.151,0-3.303-1.536-3.303-3.713v-7.76H148.433z"/>
		<path fill="#080808" d="M160.741,44.025c-0.026,0.307-0.026,0.639-0.026,0.947c0,4.431,2.151,5.173,3.662,5.173
			c1.255,0,2.613-0.564,3.56-2.381l0.461,0.255c-1.101,2.049-2.382,3.048-4.507,3.048c-3.201,0-5.404-2.407-5.404-5.966
			c0-3.15,1.639-6.428,5.404-6.428c3.176,0,4.661,2.714,4.61,5.353H160.741z M166.401,43.462v-0.359c0-3.175-1.46-3.867-2.561-3.867
			c-0.691,0-2.766,0.281-3.098,4.226H166.401z"/>
		<path fill="#080808" d="M169.602,50.786v-0.564h0.999c0.564,0,0.922-0.077,0.922-0.614v-9.091c0-0.487-0.614-0.539-1.614-0.539
			h-0.307v-0.563c0.41-0.026,1.639-0.129,3.867-0.974v2.689c0.512-1.153,1.409-2.459,2.919-2.459c1.127,0,2.049,0.564,2.049,1.537
			c0,0.614-0.359,1.306-1.076,1.306c-0.717,0-1.075-0.615-1.101-1.05c-0.025-0.255,0-0.794-0.666-0.794
			c-0.999,0-2.125,2.075-2.125,3.74v6.197c0,0.538,0.359,0.614,0.922,0.614h0.999v0.564H169.602z"/>
		<path fill="#080808" d="M194.652,39.517h-2.458l-2.919,10.705c-0.82,3.048-2.843,6.301-5.48,6.301c-1.23,0-1.639-0.82-1.639-1.358
			c0-0.64,0.461-1.075,1.075-1.075c0.768,0,0.999,0.614,1.075,0.845c0.077,0.256,0.077,0.717,0.538,0.717
			c1.075,0,1.844-3.048,2.305-4.738l3.098-11.396h-2.433l0.179-0.563h2.407l0.435-1.588c0.845-3.048,2.843-6.3,5.481-6.3
			c1.229,0,1.639,0.819,1.639,1.357c0,0.614-0.461,1.075-1.076,1.075c-0.768,0-0.973-0.563-1.05-0.845
			c-0.128-0.461-0.179-0.717-0.563-0.717c-1.076,0-1.844,3.048-2.305,4.738l-0.615,2.279h2.484L194.652,39.517z"/>
		<path fill="#080808" d="M205.464,43.846c0,3.918-2.638,7.221-6.479,7.221c-2.945,0-4.174-2.432-4.174-4.917
			c0-3.969,2.74-7.478,6.531-7.478C204.312,38.672,205.464,41.131,205.464,43.846z M203.415,42.309c0-2.433-1.024-3.073-1.895-3.073
			c-2.407,0-4.661,3.867-4.661,8.195c0,2.766,1.434,3.073,1.972,3.073C200.829,50.504,203.415,47.303,203.415,42.309z"/>
		<path fill="#080808" d="M207.275,50.786l2.791-9.783c0.077-0.255,0.154-0.486,0.154-0.716c0-0.282-0.103-0.41-0.359-0.41
			c-0.794,0-2.049,1.562-2.458,2.228l-0.461-0.307c0.845-1.332,2.484-3.124,4.021-3.124c0.82,0,1.204,0.564,1.204,1.358
			c0,0.333-0.051,0.64-0.154,0.973l-0.871,3.073h0.102c1.998-3.458,3.381-5.404,4.789-5.404c0.538,0,1.152,0.333,1.152,1.05
			c0,0.589-0.307,1.178-1.024,1.178c-0.589,0-0.998-0.41-1.536-0.41c-1.255,0-4.354,6.582-4.559,7.324l-0.845,2.971H207.275z"/>
	</g>
	<g>
		<path fill="#06276A" d="M3.577,89.91l0.048,0.627c0.29,3.912,5.652,7.439,10.144,7.439c5.217,0,7.342-3.961,7.342-7.052
			c0-2.512-1.449-4.01-3.333-5.169l-8.646-5.216c-3.865-2.318-6.618-3.623-6.618-7.439c0-3.479,1.932-8.936,10.144-8.936
			c1.981,0,4.879,0.289,8.695,2.077l-0.048-1.401h1.546l0.29,8.549h-1.546l-0.048-1.014c-0.193-3.961-4.685-6.859-9.274-6.859
			c-3.574,0-5.989,1.98-5.989,4.878c0,1.497,0.724,3.526,2.85,4.83l9.999,5.99c2.029,1.207,5.603,3.139,5.603,8.018
			c0,4.202-2.56,10.095-10.868,10.095c-2.56,0-5.989-0.29-9.757-2.27l0.096,1.594H2.659L2.031,89.91H3.577z"/>
		<path fill="#06276A" d="M33.039,85.901c-0.048,0.58-0.048,1.207-0.048,1.787c0,8.357,4.058,9.757,6.907,9.757
			c2.367,0,4.927-1.062,6.715-4.492l0.869,0.483c-2.077,3.865-4.493,5.749-8.502,5.749c-6.038,0-10.192-4.541-10.192-11.256
			c0-5.941,3.091-12.124,10.192-12.124c5.99,0,8.792,5.121,8.695,10.096H33.039z M43.714,84.838v-0.676
			c0-5.989-2.753-7.293-4.83-7.293c-1.304,0-5.217,0.531-5.845,7.97H43.714z"/>
		<path fill="#06276A" d="M49.414,98.653V97.59h1.884c1.062,0,1.739-0.146,1.739-1.159V79.283c0-0.918-1.159-1.015-3.043-1.015
			h-0.58v-1.062c2.802-0.338,4.686-0.87,7.294-1.836v2.898c2.27-1.594,4.396-2.464,6.763-2.464c6.81,0,6.762,7.197,6.762,8.357
			v12.27c0,1.014,0.676,1.159,1.739,1.159h1.884v1.062H62.939V97.59h1.884c1.063,0,1.739-0.146,1.739-1.159V83.727
			c0-4.638-2.27-6.28-4.927-6.28c-1.836,0-3.767,1.159-4.927,2.463v16.521c0,1.014,0.676,1.159,1.739,1.159h1.884v1.062H49.414z"/>
		<path fill="#06276A" d="M76.432,98.653V97.59h1.884c1.062,0,1.739-0.146,1.739-1.159V79.283c0-0.918-1.159-1.015-3.043-1.015
			h-0.58v-1.062c0.773-0.049,3.091-0.241,7.294-1.836v21.061c0,1.014,0.676,1.159,1.739,1.159h1.884v1.062H76.432z M81.842,64.84
			c1.401,0,2.416,1.015,2.416,2.415s-1.015,2.415-2.416,2.415c-1.401,0-2.415-1.015-2.415-2.415S80.441,64.84,81.842,64.84z"/>
		<path fill="#06276A" d="M99.787,75.805c7.584,0,10.82,5.941,10.82,11.69c0,5.748-3.236,11.689-10.82,11.689
			c-7.583,0-10.82-5.941-10.82-11.689C88.967,81.746,92.204,75.805,99.787,75.805z M99.787,98.121c2.367,0,6.618-1.352,6.618-10.626
			s-4.251-10.627-6.618-10.627c-2.367,0-6.617,1.353-6.617,10.627S97.421,98.121,99.787,98.121z"/>
		<path fill="#06276A" d="M112.435,98.653V97.59h1.884c1.062,0,1.739-0.146,1.739-1.159V79.283c0-0.918-1.159-1.015-3.043-1.015
			h-0.58v-1.062c0.773-0.049,3.091-0.241,7.294-1.836v5.072c0.966-2.174,2.657-4.638,5.507-4.638c2.125,0,3.864,1.063,3.864,2.899
			c0,1.159-0.676,2.463-2.029,2.463c-1.353,0-2.029-1.159-2.077-1.98c-0.048-0.483,0-1.497-1.256-1.497
			c-1.883,0-4.009,3.912-4.009,7.053v11.689c0,1.014,0.676,1.159,1.739,1.159h1.884v1.062H112.435z"/>
		<path fill="#06276A" d="M170.255,80.346v-11.98c0-2.125-1.208-2.173-1.836-2.173h-2.753V64.84h13.622v1.353h-2.753
			c-0.628,0-1.836,0.048-1.836,2.173v26.761c0,2.126,1.208,2.174,1.836,2.174h2.753v1.353h-13.622V97.3h2.753
			c0.628,0,1.836-0.048,1.836-2.174V81.698h-17.051v13.428c0,2.126,1.208,2.174,1.836,2.174h2.753v1.353h-13.621V97.3h2.753
			c0.628,0,1.836-0.048,1.836-2.174V68.366c0-2.125-1.208-2.173-1.836-2.173h-2.753V64.84h13.621v1.353h-2.753
			c-0.628,0-1.836,0.048-1.836,2.173v11.98H170.255z"/>
		<path fill="#06276A" d="M186.159,85.901c-0.048,0.58-0.048,1.207-0.048,1.787c0,8.357,4.058,9.757,6.907,9.757
			c2.367,0,4.927-1.062,6.715-4.492l0.869,0.483c-2.077,3.865-4.493,5.749-8.502,5.749c-6.038,0-10.192-4.541-10.192-11.256
			c0-5.941,3.091-12.124,10.192-12.124c5.99,0,8.792,5.121,8.695,10.096H186.159z M196.834,84.838v-0.676
			c0-5.989-2.753-7.293-4.83-7.293c-1.304,0-5.217,0.531-5.845,7.97H196.834z"/>
		<path fill="#06276A" d="M216.61,82.81c0-2.029,0.048-5.941-5.313-5.941c-2.174,0-2.802,0.821-2.802,1.497
			c0,0.241,0.048,0.531,0.096,0.773c0.048,0.338,0.145,0.675,0.145,1.014c0,1.402-0.966,2.126-2.174,2.126
			c-1.304,0-2.077-1.015-2.077-2.318c0-2.077,2.125-4.155,6.666-4.155c8.936,0,9.129,5.362,9.129,7.005v12.607
			c0,0.869,0.145,1.883,1.062,1.883c0.773,0,1.449-0.821,1.788-1.883l1.062,0.435c-0.435,1.256-1.497,3.333-4.154,3.333
			c-2.705,0-3.43-2.415-3.43-4.203c-2.076,2.512-4.637,4.203-8.067,4.203c-3.526,0-5.12-2.367-5.12-4.782
			c0-5.989,7.294-7.971,13.187-9.081V82.81z M216.61,86.384c-7.342,1.401-8.985,4.299-8.985,7.245c0,2.126,1.015,3.671,2.995,3.671
			c2.222,0,4.396-1.883,5.989-3.719V86.384z"/>
		<path fill="#06276A" d="M226.205,98.653V97.59h1.883c1.062,0,1.739-0.146,1.739-1.159V64.888c0-0.918-1.159-1.015-3.043-1.015
			h-0.58v-1.062c0.772-0.048,3.09-0.241,7.293-1.836v35.455c0,1.014,0.676,1.159,1.739,1.159h1.884v1.062H226.205z"/>
		<path fill="#06276A" d="M237.614,77.544v-1.208c2.318-0.145,6.135-1.256,6.135-7.197v-0.531h1.159v7.728
			c3.381,0.049,4.299-0.145,7.632-0.724v1.932h-7.632V93.05c0,3.623,2.222,4.395,3.623,4.395c2.174,0,4.009-2.222,4.443-4.492
			l1.063,0.435c-1.546,4.975-4.347,5.797-6.57,5.797c-4.057,0-6.231-2.899-6.231-7.005V77.544H237.614z"/>
		<path fill="#06276A" d="M255.743,98.653V97.59h1.884c1.062,0,1.739-0.146,1.739-1.159V64.888c0-0.918-1.159-1.015-3.043-1.015
			h-0.581v-1.062c2.802-0.338,4.686-0.87,7.294-1.836v17.293c2.27-1.594,4.396-2.464,6.762-2.464c6.811,0,6.762,7.197,6.762,8.357
			v12.27c0,1.014,0.676,1.159,1.74,1.159h1.883v1.062h-10.916V97.59h1.883c1.062,0,1.739-0.146,1.739-1.159V83.727
			c0-4.638-2.27-6.28-4.927-6.28c-1.836,0-3.768,1.159-4.927,2.463v16.521c0,1.014,0.676,1.159,1.739,1.159h1.884v1.062H255.743z"/>
	</g>
</g>
</svg>
