<?xml version="1.0" encoding="utf-8"?>
<!-- Generator: Adobe Illustrator 18.1.1, SVG Export Plug-In . SVG Version: 6.00 Build 0)  -->
<!DOCTYPE svg PUBLIC "-//W3C//DTD SVG 1.1//EN" "http://www.w3.org/Graphics/SVG/1.1/DTD/svg11.dtd">
<svg version="1.1" id="Layer_1" xmlns="http://www.w3.org/2000/svg" xmlns:xlink="http://www.w3.org/1999/xlink" x="0px" y="0px"
	 viewBox="276.5 650 197 34" enable-background="new 276.5 650 197 34" xml:space="preserve">
<g>
	<g>
		<path fill="#FFFFFF" d="M300,683.5c-0.2,0.5-0.8,0.6-1.3,0.4l-5.5-3.2c-0.5-0.2-0.6-0.8-0.4-1.3l3.2-5.5c0.2-0.5,0.8-0.6,1.3-0.4
			l5.5,3.2c0.5,0.2,0.6,0.8,0.4,1.3L300,683.5z"/>
		<path fill="#FFFFFF" d="M304.7,675.6c-0.2,0.5-0.8,0.6-1.3,0.2l-5.3-3.4c-0.5-0.2-0.6-0.8-0.2-1.3l3.4-5.3
			c0.2-0.5,0.8-0.6,1.3-0.2l5.3,3.4c0.5,0.2,0.6,0.8,0.2,1.3L304.7,675.6z"/>
		<path fill="#FFFFFF" d="M309.7,667.9c-0.2,0.5-0.8,0.5-1.3,0.2l-5.1-3.5c-0.5-0.2-0.5-0.8-0.2-1.3l3.5-5.2
			c0.2-0.5,0.8-0.5,1.3-0.2l5.2,3.5c0.5,0.2,0.5,0.8,0.2,1.3L309.7,667.9z"/>
		<path fill="#FFFFFF" d="M314.9,660.3c-0.4,0.4-0.8,0.5-1.3,0.2l-5.1-3.8c-0.4-0.4-0.5-0.8-0.2-1.3l3.8-5.1
			c0.4-0.4,0.8-0.5,1.3-0.2l5.1,3.8c0.5,0.4,0.6,1,0.2,1.3L314.9,660.3z"/>
		<path fill="#FFFFFF" d="M294.6,672.1c0.5,0.2,0.6,0.8,0.4,1.3l-3,5.6c-0.2,0.5-0.8,0.6-1.3,0.4l-5.6-3c-0.5-0.2-0.6-0.8-0.4-1.3
			l3-5.6c0.2-0.5,0.8-0.6,1.3-0.4L294.6,672.1z"/>
		<path fill="#FFFFFF" d="M299.5,664c0.5,0.2,0.6,0.8,0.4,1.3l-3.3,5.3c-0.2,0.5-0.8,0.6-1.2,0.4l-5.5-3.2c-0.5-0.2-0.6-0.8-0.4-1.3
			l3.2-5.5c0.2-0.5,0.8-0.6,1.3-0.4L299.5,664z"/>
		<path fill="#FFFFFF" d="M286.2,667.7c0.5,0.2,0.6,0.8,0.5,1.2l-2.8,5.7c-0.2,0.5-0.8,0.6-1.2,0.5l-5.7-2.8
			c-0.5-0.2-0.6-0.8-0.5-1.2l2.8-5.7c0.2-0.5,0.8-0.6,1.2-0.5L286.2,667.7z"/>
	</g>
	<g>
		<path fill="#FFFFFF" d="M333.5,668.9l3.6-9.1h3.4l-5.7,14.2h-2.7l-5.7-14.2h3.4L333.5,668.9z"/>
		<path fill="#FFFFFF" d="M356.3,672.2c-1.5,1.5-3.2,2.1-5.3,2.1c-2.1,0-3.9-0.7-5.3-2.1c-1.5-1.5-2.2-3.2-2.2-5.2s0.7-3.9,2.2-5.2
			c1.5-1.5,3.2-2.1,5.3-2.1c2.1,0,3.9,0.7,5.3,2.1c1.5,1.5,2.2,3.2,2.2,5.2C358.4,669.1,357.7,670.8,356.3,672.2z M355.2,667
			c0-1.2-0.4-2.3-1.2-3.3c-0.8-0.8-1.8-1.3-3-1.3s-2.2,0.5-3,1.3c-0.8,0.8-1.2,1.9-1.2,3.3s0.4,2.3,1.2,3.3c0.8,0.8,1.8,1.3,3,1.3
			s2.2-0.5,3-1.3C354.8,669.3,355.2,668.2,355.2,667z"/>
		<path fill="#FFFFFF" d="M368.7,662.6V674h-3.2v-11.4h-4v-2.8h11.2v2.8H368.7z"/>
		<path fill="#FFFFFF" d="M387.4,660v2.8h-7v2.9h6.3v2.7h-6.3v2.9h7.3v2.8h-10.5V660H387.4z"/>
		<path fill="#FFFFFF" d="M402,666.9h3.2v5.1c-1.5,1.6-3.4,2.3-5.8,2.3c-2.1,0-3.9-0.7-5.2-2.1c-1.5-1.3-2.2-3.2-2.2-5.2
			s0.7-3.9,2.2-5.2c1.5-1.5,3.2-2.1,5.2-2.1c2.1,0,3.8,0.7,5.3,2.1l-1.7,2.4c-0.6-0.6-1.2-1-1.7-1.1c-0.5-0.2-1.1-0.4-1.7-0.4
			c-1.2,0-2.2,0.4-3,1.2c-0.8,0.8-1.2,1.9-1.2,3.3c0,1.3,0.4,2.4,1.2,3.3c0.8,0.8,1.7,1.2,2.8,1.2c1.1,0,2.1-0.2,2.8-0.6v-4.2H402z"
			/>
		<path fill="#FFFFFF" d="M422,664.7c0,2.3-0.8,3.8-2.7,4.4l3.6,5.1h-3.9l-3.2-4.5h-2.2v4.5h-3.2V660h5.3c2.2,0,3.8,0.4,4.7,1.1
			C421.5,661.8,422,663,422,664.7z M418.1,666.4c0.4-0.4,0.6-1,0.6-1.7s-0.2-1.3-0.6-1.6c-0.4-0.2-1.1-0.5-2.2-0.5h-2.4v4.2h2.3
			C417.1,666.9,417.8,666.6,418.1,666.4z"/>
		<path fill="#FFFFFF" d="M437.8,674.2l-1.3-3h-5.9l-1.3,3h-3.4L432,660h3l6.2,14.2H437.8z M433.5,664.2l-1.8,4.1h3.5L433.5,664.2z"
			/>
		<path fill="#FFFFFF" d="M455,661.2c1,0.8,1.5,2.2,1.5,3.9s-0.5,3-1.6,3.9c-1,0.8-2.5,1.2-4.7,1.2h-1.9v4h-3.2V660h5
			C452.4,660,454,660.3,455,661.2z M452.7,666.8c0.4-0.5,0.6-1.1,0.6-1.8c0-0.8-0.2-1.5-0.7-1.7c-0.5-0.4-1.2-0.5-2.3-0.5h-1.8v4.7
			h2.2C451.6,667.5,452.3,667.2,452.7,666.8z"/>
		<path fill="#FFFFFF" d="M470.3,660h3.2v14.2h-3.2v-5.6h-5.7v5.6h-3.2V660h3.2v5.9h5.7V660z"/>
	</g>
</g>
</svg>
